<svg viewBox="0 0 2076.09 282.66" style="grid-area: 1 / 1 / auto / auto; height: 120%; left: auto; right: auto; justify-self: center;" class=""><defs><style>.a{isolation:isolate;}.b{mix-blend-mode:screen;}.c{fill:url(#a);}.d{fill:url(#b);}.e{fill:url(#c);}.f{fill:url(#d);}.g{fill:url(#e);}.h{fill:url(#f);}.i{fill:url(#g);}.j{fill:url(#h);}.k{fill:url(#i);}.l{fill:url(#j);}.m{fill:url(#k);}.n{fill:url(#l);}.o{fill:url(#m);}.p{fill:url(#n);}.q{fill:url(#o);}.r{fill:url(#p);}.s{fill:url(#q);}.t{fill:url(#r);}.u{fill:url(#s);}.v{fill:url(#t);}.w{fill:url(#u);}.x{fill:url(#v);}.y{fill:url(#w);}.z{fill:url(#x);}.aa{fill:url(#y);}.ab{fill:url(#z);}.ac{fill:url(#aa);}.ad{fill:url(#ab);}.ae{fill:url(#ac);}.af{fill:url(#ad);}.ag{fill:url(#ae);}.ah{fill:url(#af);}</style><linearGradient id="a" x1="-24.12" y1="128.27" x2="2086.91" y2="128.27" gradientUnits="userSpaceOnUse"><stop offset="0" stop-color="#74007f" data-darkreader-inline-stopcolor="" style="--darkreader-inline-stopcolor:#5d0066;"></stop><stop offset="0.25" stop-color="#d755d5" data-darkreader-inline-stopcolor="" style="--darkreader-inline-stopcolor:#8f228e;"></stop><stop offset="0.5" stop-color="#557cff" data-darkreader-inline-stopcolor="" style="--darkreader-inline-stopcolor:#002399;"></stop><stop offset="0.75" stop-color="#32d7ff" data-darkreader-inline-stopcolor="" style="--darkreader-inline-stopcolor:#008cae;"></stop><stop offset="1" stop-color="#97fcff" data-darkreader-inline-stopcolor="" style="--darkreader-inline-stopcolor:#006e71;"></stop></linearGradient><linearGradient id="b" x1="-24.12" y1="129.1" x2="2086.91" y2="129.1" xlink:href="#a"></linearGradient><linearGradient id="c" x1="-24.12" y1="129.95" x2="2086.91" y2="129.95" xlink:href="#a"></linearGradient><linearGradient id="d" x1="-24.12" y1="130.81" x2="2086.91" y2="130.81" xlink:href="#a"></linearGradient><linearGradient id="e" x1="-24.12" y1="131.67" x2="2086.91" y2="131.67" xlink:href="#a"></linearGradient><linearGradient id="f" x1="-24.12" y1="132.55" x2="2086.91" y2="132.55" xlink:href="#a"></linearGradient><linearGradient id="g" x1="-24.12" y1="133.43" x2="2086.91" y2="133.43" xlink:href="#a"></linearGradient><linearGradient id="h" x1="-24.12" y1="134.33" x2="2086.91" y2="134.33" xlink:href="#a"></linearGradient><linearGradient id="i" x1="-24.12" y1="135.23" x2="2086.91" y2="135.23" xlink:href="#a"></linearGradient><linearGradient id="j" x1="-24.12" y1="136.15" x2="2086.91" y2="136.15" xlink:href="#a"></linearGradient><linearGradient id="k" x1="-24.12" y1="137.07" x2="2086.91" y2="137.07" xlink:href="#a"></linearGradient><linearGradient id="l" x1="-24.12" y1="138" x2="2086.91" y2="138" xlink:href="#a"></linearGradient><linearGradient id="m" x1="-24.12" y1="138.94" x2="2086.91" y2="138.94" xlink:href="#a"></linearGradient><linearGradient id="n" x1="-24.12" y1="139.88" x2="2086.91" y2="139.88" xlink:href="#a"></linearGradient><linearGradient id="o" x1="-24.12" y1="140.83" x2="2086.91" y2="140.83" xlink:href="#a"></linearGradient><linearGradient id="p" x1="-24.12" y1="141.79" x2="2086.91" y2="141.79" xlink:href="#a"></linearGradient><linearGradient id="q" x1="-24.12" y1="141.71" x2="2086.91" y2="141.71" xlink:href="#a"></linearGradient><linearGradient id="r" x1="-24.12" y1="141.35" x2="2086.91" y2="141.35" xlink:href="#a"></linearGradient><linearGradient id="s" x1="-24.12" y1="140.99" x2="2086.91" y2="140.99" xlink:href="#a"></linearGradient><linearGradient id="t" x1="-24.12" y1="140.63" x2="2086.91" y2="140.63" xlink:href="#a"></linearGradient><linearGradient id="u" x1="-24.12" y1="140.28" x2="2086.91" y2="140.28" xlink:href="#a"></linearGradient><linearGradient id="v" x1="-24.12" y1="139.92" x2="2086.91" y2="139.92" xlink:href="#a"></linearGradient><linearGradient id="w" x1="-24.12" y1="139.56" x2="2086.91" y2="139.56" xlink:href="#a"></linearGradient><linearGradient id="x" x1="-24.12" y1="139.2" x2="2086.91" y2="139.2" xlink:href="#a"></linearGradient><linearGradient id="y" x1="-24.12" y1="138.84" x2="2086.91" y2="138.84" xlink:href="#a"></linearGradient><linearGradient id="z" x1="-24.12" y1="138.48" x2="2086.91" y2="138.48" xlink:href="#a"></linearGradient><linearGradient id="aa" x1="-24.12" y1="138.11" x2="2086.91" y2="138.11" xlink:href="#a"></linearGradient><linearGradient id="ab" x1="-24.12" y1="137.75" x2="2086.91" y2="137.75" xlink:href="#a"></linearGradient><linearGradient id="ac" x1="-24.12" y1="137.39" x2="2086.91" y2="137.39" xlink:href="#a"></linearGradient><linearGradient id="ad" x1="-24.12" y1="136.97" x2="2086.91" y2="136.97" xlink:href="#a"></linearGradient><linearGradient id="ae" x1="-24.12" y1="136.88" x2="2086.91" y2="136.88" xlink:href="#a"></linearGradient><linearGradient id="af" x1="-24.12" y1="138.99" x2="2086.91" y2="138.99" xlink:href="#a"></linearGradient></defs><g class="a"><g class="b"><path class="c" d="M879.3,242.13c-18.74,0-35.09-2.12-48.71-6.34-16.36-5.06-28.34-13-35.61-23.66-9.39-13.75-4.09-42.39,1.53-72.72,6.68-36.07,13.58-73.38-6.06-84-6.78-3.69-14.49-5.14-23.57-4.43-8.12.63-17.15,3-27.64,7.2C719.74,66,698.83,78.75,676.7,92.27c-50.89,31.11-103.51,63.27-136.35,29.9C510,91.31,480.82,77.28,451.26,79.27c-25.78,1.73-48.49,15.42-68.53,27.49-17.83,10.75-34.67,20.9-50.72,20.9H-24.12v-.24H332c16,0,32.8-10.13,50.6-20.86,20.06-12.09,42.8-25.79,68.63-27.53,29.64-2,58.84,12.06,89.27,43,32.72,33.23,85.26,1.12,136.07-29.94,22.14-13.53,43-26.31,62.58-34.16,10.5-4.22,19.56-6.58,27.7-7.22,9.12-.71,16.88.75,23.7,4.46,19.79,10.76,12.87,48.15,6.18,84.31-2.69,14.54-5.48,29.59-6.35,42.31-1,14.21.6,24.09,4.78,30.22,7.24,10.6,19.18,18.53,35.48,23.58,15.42,4.77,34.35,6.86,56.28,6.22,25-.74,53.66-5.16,82.84-12.78a503.35,503.35,0,0,0,87.32-31.83c29.56-14,55.89-30.15,78.26-47.9,24.2-19.2,42.93-39.7,55.67-60.94,10.56-17.58,21.38-27.27,33.1-29.62,17.67-3.53,35.45,9.58,56,24.77,13.83,10.19,28.12,20.73,44.43,28,19.49,8.62,37.08,13.84,52.28,15.52,13.69,1.51,26,.19,36.46-3.93,27.79-10.87,40.11-39.37,51-64.51,11.55-26.72,21.53-49.8,46.86-42.88,7.92,2.16,13.24,6,16.25,11.69,7.28,13.77-.33,35.87-8.39,59.28-8,23.25-16.29,47.29-9.78,63.94,3.31,8.46,7.66,14.34,13.29,18,5.18,3.35,11.5,4.81,19.3,4.45,14.85-.69,33.78-7.94,55.71-16.33,34.75-13.29,78-29.84,128.29-29.84h361.08V127H1725.83c-50.25,0-93.48,16.54-128.21,29.83-21.94,8.4-40.89,15.65-55.78,16.34-7.86.36-14.21-1.1-19.44-4.48-5.67-3.67-10.05-9.59-13.37-18.09-6.55-16.73,1.75-40.82,9.77-64.11s15.64-45.41,8.41-59.09c-3-5.65-8.26-9.43-16.11-11.58C1486,9,1476,32,1464.52,58.61c-10.89,25.18-23.22,53.73-51.1,64.64-10.54,4.13-22.85,5.45-36.58,3.94-15.22-1.68-32.84-6.91-52.35-15.54-16.33-7.22-30.63-17.77-44.47-28-20.54-15.15-38.29-28.23-55.86-24.72-11.64,2.33-22.42,12-32.93,29.52-12.76,21.25-31.51,41.78-55.73,61-22.39,17.77-48.74,33.89-78.31,47.93a503.83,503.83,0,0,1-87.36,31.85c-29.2,7.63-57.86,12-82.9,12.78C884.35,242.1,881.8,242.13,879.3,242.13Z"></path></g><g class="b"><path class="d" d="M879.75,242.48c-18.11,0-33.83-2.18-46.8-6.49-14.86-4.93-25.85-12.6-32.68-22.78-4.51-6.73-6.55-17-6.21-31.32.29-12.8,2.41-27.69,4.45-42.09,5-35.17,10.15-71.54-9.61-83.69-7.19-4.43-15.31-6.34-24.8-5.85-8.48.44-17.89,2.8-28.75,7.21C715.13,65.67,692.69,80,671,93.84c-24.52,15.65-49.87,31.83-72.71,39.77-12.32,4.27-22.91,5.86-32.38,4.85a43.81,43.81,0,0,1-27.39-13.34c-29.92-30.31-58.73-44.3-88.1-42.78-25.61,1.32-48.31,14.28-68.34,25.72-17.76,10.14-34.53,19.71-50.52,19.71H-24.12v-.25H331.56c15.92,0,32.66-9.56,50.39-19.68C402,96.39,424.74,83.41,450.41,82.08c29.44-1.52,58.32,12.5,88.29,42.86a43.57,43.57,0,0,0,27.23,13.27c9.44,1,20-.58,32.27-4.85,22.82-7.92,48.16-24.09,72.66-39.73,21.71-13.86,44.15-28.19,64.39-36.4,10.89-4.42,20.32-6.79,28.83-7.22,9.56-.5,17.72,1.43,24.95,5.88,19.9,12.24,14.73,48.69,9.73,84-2,14.39-4.15,29.27-4.45,42-.33,14.3,1.69,24.49,6.17,31.17,6.8,10.14,17.75,17.77,32.55,22.69,14,4.65,31.18,6.81,51.11,6.43,24.31-.46,52.57-4.82,81.74-12.6a502.92,502.92,0,0,0,87.23-32.48c62.11-30,110.12-68.83,135.19-109.45,9.9-16,20.17-24.87,31.39-27,17.82-3.4,35.81,10,56.65,25.54,15,11.2,30.56,22.78,48.23,29.84,43,17.17,75,18,97.92,2.38,19.89-13.53,30-37.35,39-58.37,11.36-26.7,21.18-49.75,47.06-43.17,8.37,2.13,14.06,6,17.39,11.93,7.8,13.81,1.1,36-6,59.48-7,23.22-14.26,47.23-7.35,64,3.41,8.27,7.79,14,13.38,17.53,5.15,3.24,11.38,4.6,19,4.17,14.56-.83,33-8.15,54.28-16.62,34.2-13.58,76.75-30.49,126.57-30.49h361.08v.25H1725.83c-49.77,0-92.3,16.91-126.47,30.48-21.34,8.48-39.77,15.8-54.36,16.63-7.71.44-14-.93-19.17-4.2-5.65-3.55-10.06-9.33-13.49-17.65-6.95-16.88.32-40.93,7.35-64.19,7.08-23.44,13.77-45.57,6-59.29-3.3-5.83-8.93-9.69-17.23-11.8-25.67-6.53-35.45,16.43-46.77,43-9,21.05-19.13,44.91-39.08,58.48-23,15.63-55.08,14.86-98.16-2.35-17.7-7.07-33.25-18.66-48.29-29.87-20.78-15.5-38.74-28.88-56.44-25.5-11.15,2.13-21.36,10.93-31.22,26.89-25.1,40.66-73.15,79.57-135.3,109.55a503.2,503.2,0,0,1-87.28,32.5c-29.18,7.79-57.47,12.15-81.8,12.61C882.66,242.47,881.19,242.48,879.75,242.48Z"></path></g><g class="b"><path class="e" d="M880.49,242.85c-36.7,0-62.59-9.86-74.94-28.56-10.69-16.21-7.84-45.6-5.09-74,1.67-17.15,3.39-34.88,2.17-49.7C801.26,74,796.26,63,787.34,56.86c-7.59-5.19-16.08-7.59-26-7.33-8.82.24-18.57,2.59-29.79,7.2-20.86,8.57-43.78,23.86-65.94,38.65-23.84,15.9-48.49,32.35-70.66,40.48-12,4.39-22.24,6.08-31.47,5.18a42.37,42.37,0,0,1-26.79-13c-29.53-29.68-58-43.6-87.21-42.55-25.45.91-48.13,13.12-68.14,23.89-17.66,9.5-34.33,18.48-50.25,18.48H-24.12v-.28H331.1c15.85,0,32.49-9,50.11-18.44,20-10.79,42.76-23,68.27-23.93,29.24-1,57.83,12.9,87.41,42.64,7.62,7.65,16.33,11.87,26.63,12.88,9.19.9,19.44-.79,31.34-5.16,22.14-8.13,46.78-24.56,70.6-40.46,22.18-14.79,45.11-30.09,66-38.67,11.25-4.62,21-7,29.89-7.22,10-.26,18.51,2.15,26.15,7.37,9,6.14,14,17.24,15.41,33.93,1.22,14.84-.5,32.58-2.17,49.74-2.75,28.38-5.59,57.72,5,73.84,12.29,18.62,38.1,28.44,74.7,28.44h1.78c23.57-.2,51.38-4.52,80.43-12.49a499.93,499.93,0,0,0,86.85-33.18c29.53-14.53,56.12-31.1,79-49.24,24.61-19.49,43.78-39.91,57-60.7,9.28-14.6,19-22.64,29.74-24.57,17.9-3.24,36.1,10.52,57.17,26.46,16.24,12.28,33,25,52.06,31.77,42.29,15.1,73.73,14.73,96.11-1.14,19.44-13.78,29.27-37.22,37.95-57.89,11.2-26.69,20.87-49.75,47.32-43.5,8.82,2.09,14.9,6.06,18.56,12.15,8.34,13.85,2.54,36.14-3.61,59.74-6,23.17-12.28,47.14-5,64.05,3.51,8.1,7.91,13.7,13.47,17.1,5.12,3.13,11.25,4.4,18.75,3.89,14.26-1,32.16-8.36,52.88-16.91,33.64-13.88,75.5-31.14,124.82-31.16h361.08v.28c-3.25,0-325.3,0-361.08,0-49.27,0-91.1,17.27-124.71,31.14-20.75,8.56-38.67,15.95-53,16.93-7.56.51-13.74-.77-18.91-3.93-5.62-3.44-10.06-9.07-13.58-17.23-7.35-17-1.1-41,4.95-64.23,6.13-23.54,11.92-45.77,3.64-59.53-3.62-6-9.64-9.95-18.39-12-26.21-6.2-35.84,16.75-47,43.33-8.69,20.71-18.54,44.18-38,58-11.51,8.16-25.4,12.24-41.91,12.24-15.71,0-33.79-3.69-54.46-11.07-19.06-6.81-35.87-19.52-52.12-31.81-21-15.89-39.18-29.62-57-26.41-10.65,1.92-20.32,9.92-29.55,24.45-13.24,20.81-32.43,41.26-57.06,60.76-22.93,18.16-49.54,34.74-79.09,49.28a499.61,499.61,0,0,1-86.89,33.2c-29.08,8-56.92,12.3-80.51,12.5Z"></path></g><g class="b"><path class="f" d="M881.51,243.24h-.32c-16.57,0-30.89-2.29-42.55-6.71-12.36-4.69-21.71-11.81-27.8-21.16-11.34-17.44-9.87-46.48-8.45-74.56.85-16.78,1.73-34.13-.14-48.8-2.09-16.43-7.47-27.68-16.46-34.41a43.62,43.62,0,0,0-27.07-8.86h-.07c-9.16,0-19.22,2.36-30.76,7.16-21.45,8.93-44.78,25.2-67.34,40.93-23.21,16.17-47.2,32.9-68.75,41.26-11.61,4.51-21.63,6.31-30.64,5.51-10.12-.89-18.72-5-26.29-12.57-28.52-28.53-56.21-42.42-84.56-42.42l-1.74,0c-25.29.51-48,12-68,22.11C363.05,119.62,346.48,128,330.64,128H-24.12v-.3H330.64c15.77,0,32.3-8.37,49.81-17.23,20-10.14,42.75-21.63,68.11-22.14,29-.58,57.35,13.31,86.52,42.48,7.52,7.52,16.06,11.61,26.1,12.49,9,.79,19-1,30.51-5.49,21.51-8.35,45.49-25.07,68.69-41.23,22.57-15.74,45.91-32,67.39-41,11.58-4.82,21.68-7.17,30.88-7.18h.08A43.89,43.89,0,0,1,786,57.36C795,64.14,800.45,75.46,802.55,92c1.87,14.7,1,32.06.14,48.85-1.41,28-2.88,57,8.41,74.38,11.76,18.09,36,27.68,70.09,27.74h.32c22.74,0,49.93-4.3,78.65-12.44a496.46,496.46,0,0,0,86.22-33.92c28.93-14.57,56.26-31.83,79-49.91,24.68-19.6,44-39.92,57.44-60.42,8.7-13.28,17.91-20.58,28.13-22.31,17.94-3,37.23,11.8,57.64,27.5,17.46,13.43,35.51,27.32,55.9,33.75,41.55,13.1,72.37,11.61,94.23-4.55,19-14,28.53-37.11,37-57.46,11-26.72,20.59-49.79,47.6-43.87C1511.22,21,1517,24.2,1521.1,29c3.64,4.27,5.79,9.75,6.56,16.75,1.44,13-2.08,29-5.8,46-5.07,23.12-10.32,47-2.61,64.06,3.59,7.94,8,13.39,13.54,16.67,5.08,3,11.13,4.21,18.47,3.62,14-1.12,31.38-8.57,51.53-17.21,33.07-14.17,74.23-31.8,123-31.82h361.08v.3c-3.25,0-325.28,0-361.08,0-48.74,0-89.87,17.64-122.92,31.8-20.17,8.65-37.6,16.11-51.62,17.23-15.19,1.21-25.45-5.29-32.32-20.46-7.75-17.12-2.49-41.09,2.6-64.26,3.71-16.92,7.22-32.9,5.79-45.86-1.61-14.6-9.28-22.91-24.12-26.16C1476.47,13.74,1467,36.7,1456,63.29c-8.43,20.39-18,43.5-37,57.59-12.11,9-27,13.43-44.83,13.43-14.51,0-31-2.95-49.67-8.83-20.44-6.45-38.52-20.35-56-33.8-21.24-16.34-39.58-30.45-57.4-27.44-10.13,1.71-19.27,9-27.93,22.18-13.45,20.52-32.8,40.87-57.5,60.48-22.79,18.1-50.14,35.37-79.09,49.95a496.55,496.55,0,0,1-86.27,33.94C931.5,238.94,904.28,243.24,881.51,243.24Z"></path></g><g class="b"><path class="g" d="M882.87,243.65H880.8c-15.14-.18-28.23-2.46-38.92-6.78-11.32-4.56-20-11.43-25.75-20.41-12-18.65-11.9-47.31-11.83-75,0-16.43.08-33.42-2.42-48-2.8-16.28-8.57-27.76-17.64-35.12-34.9-28.3-82.48,6.36-128.49,39.87-22.61,16.47-46,33.51-67,42.11-11.3,4.63-21.08,6.54-29.9,5.86C549,145.42,540.53,141.43,533,134c-28.57-28.43-56.4-42.25-85-42.25h-.36c-25.15.1-47.84,10.86-67.86,20.34-17.4,8.25-33.84,16-49.58,16H-24.12v-.32H330.19c15.66,0,32.07-7.78,49.45-16,20-9.5,42.76-20.27,68-20.37H448c28.74,0,56.64,13.85,85.28,42.34,7.43,7.39,15.82,11.35,25.63,12.11,8.76.69,18.49-1.23,29.74-5.83,21-8.59,44.32-25.61,66.92-42.07,46.11-33.59,93.79-68.32,128.88-39.86,9.14,7.41,14.95,19,17.76,35.31,2.51,14.58,2.47,31.58,2.43,48-.07,27.67-.14,56.27,11.77,74.84,5.73,8.92,14.34,15.75,25.6,20.29,10.65,4.3,23.71,6.57,38.8,6.76,22.38.26,48.4-3.91,77.39-12.43a491.28,491.28,0,0,0,85.37-34.71c60.34-31.21,110.12-71.53,136.58-110.63,8.17-12.07,16.86-18.68,26.58-20.2,18-2.81,37.41,12.46,58,28.63,18.69,14.66,38,29.83,59.77,35.79,40.75,11.18,70.94,8.61,92.28-7.85,18.55-14.31,27.81-37,36-57.08,10.9-26.78,20.32-49.91,47.92-44.31,34,6.89,28.28,39,22.2,72.9-4.13,23.07-8.41,46.92-.31,64.06,3.67,7.76,8.12,13.08,13.61,16.25,5,2.91,11,4,18.2,3.34,13.7-1.26,30.62-8.79,50.21-17.51,32.5-14.46,73-32.47,121.23-32.49,35.82,0,357.83,0,361.08,0v.32c-3.25,0-325.26,0-361.08,0-48.2,0-88.62,18-121.1,32.47-19.62,8.73-36.56,16.27-50.31,17.54-14.9,1.37-25.11-4.92-32.13-19.78-8.15-17.24-3.86-41.14.28-64.25,6-33.79,11.77-65.7-21.94-72.53-27.34-5.54-36.71,17.47-47.56,44.11-8.19,20.09-17.46,42.86-36.08,57.22-21.43,16.52-51.71,19.11-92.57,7.91-21.82-6-41.17-21.17-59.89-35.85-20.54-16.13-40-31.36-57.76-28.57-9.63,1.51-18.25,8.07-26.36,20.07-26.49,39.14-76.31,79.5-136.7,110.73a491.94,491.94,0,0,1-85.43,34.73C930.15,239.47,904.79,243.65,882.87,243.65Z"></path></g><g class="b"><path class="h" d="M884.45,244.09c-1.16,0-2.31,0-3.44,0-13.85-.31-25.85-2.6-35.68-6.81-10.4-4.45-18.44-11.08-23.91-19.72-12.58-19.84-13.92-48.07-15.21-75.37-.77-16.1-1.55-32.76-4.69-47.19C798,78.81,791.85,67.08,782.68,59.1,746.19,27.31,697.9,64,651.2,99.57c-23.08,17.56-44.88,34.14-65.35,43-11,4.76-20.57,6.79-29.21,6.22-9.69-.64-18-4.52-25.42-11.86-28.3-28-56-41.77-84.57-42.11h-1.09c-24.59,0-46.92,9.87-66.66,18.59-17.25,7.63-33.55,14.83-49.17,14.83H-24.12v-.35H329.73c15.55,0,31.81-7.19,49-14.8,19.77-8.73,42.14-18.61,66.79-18.61h1.1c28.71.35,56.45,14.15,84.81,42.21,7.36,7.28,15.6,11.13,25.2,11.76,8.58.57,18.09-1.45,29.05-6.19,20.43-8.84,42.22-25.41,65.28-43C697.8,63.68,746.2,26.86,782.91,58.84c9.23,8,15.42,19.82,19,36,3.14,14.47,3.93,31.13,4.7,47.25,1.29,27.26,2.62,55.44,15.15,75.21,10.67,16.84,30.63,25.71,59.31,26.36,21.58.5,47.05-3.7,75.69-12.46,27.06-8.28,56.22-20.57,84.33-35.54,59.59-31.73,109.29-72.13,136.37-110.85,7.67-10.95,15.87-16.92,25.09-18.24,17.9-2.56,37.53,13.17,58.31,29.83,19,15.24,40.54,32.51,63.67,37.92,39.93,9.32,69.46,5.71,90.28-11.05,18.11-14.57,27.1-37,35-56.75,10.78-26.87,20.09-50.08,48.28-44.81,35.2,6.58,30.67,39.07,25.88,73.46-3.21,23-6.52,46.78,2,64,7.1,14.42,17.15,20.43,31.6,18.92,13.43-1.41,29.88-9,48.93-17.82,31.93-14.77,71.67-33.14,119.39-33.17,35.84-.05,357.83,0,361.08,0v.34H1725.83c-47.65,0-87.35,18.39-119.25,33.14-19.07,8.82-35.54,16.44-49,17.85-14.62,1.53-24.78-4.54-32-19.11-8.53-17.33-5.21-41.16-2-64.21,4.77-34.22,9.27-66.55-25.6-73.07-27.91-5.21-37.17,17.87-47.89,44.6-7.95,19.81-17,42.27-35.14,56.89-20.91,16.83-50.54,20.47-90.58,11.11-23.21-5.42-44.78-22.71-63.81-38-20.71-16.61-40.28-32.3-58-29.76-9.11,1.31-17.24,7.23-24.85,18.1-27.11,38.76-76.86,79.21-136.5,111-28.12,15-57.31,27.28-84.39,35.56S905.32,244.09,884.45,244.09Z"></path></g><g class="b"><path class="i" d="M886.18,244.55c-1.5,0-3,0-4.44-.07-26.32-.89-44.84-9.59-55-25.88-13.16-21-15.91-48.78-18.57-75.62-3.25-32.88-6.33-63.93-27-83.13-38.07-35.37-87,3.47-134.26,41C624.33,118.78,603,135.7,583,144.81c-10.76,4.9-20.11,7.06-28.6,6.6-9.5-.52-17.7-4.29-25.05-11.53-27.9-27.45-55.3-41.19-83.75-42-24.88-.7-46.64,8.22-67.68,16.84-17.07,7-33.2,13.61-48.69,13.61H-24.12V128H329.27c15.41,0,31.51-6.6,48.55-13.58,21.07-8.64,42.85-17.56,67.83-16.87,28.55.8,56,14.57,84,42.1,7.29,7.17,15.4,10.9,24.81,11.42,8.42.45,17.72-1.69,28.42-6.57,20-9.09,41.23-26,63.76-43.88,47.41-37.66,96.44-76.6,134.74-41,20.78,19.3,23.86,50.42,27.12,83.37,2.66,26.8,5.4,54.52,18.52,75.47,10.13,16.17,28.54,24.82,54.73,25.7,40.72,1.36,98-16.47,157-49a537.43,537.43,0,0,0,77.84-51.93c24.46-19.78,44-39.66,58-59.07,7.19-9.93,14.93-15.31,23.65-16.43,17.82-2.3,37.59,13.92,58.51,31.1,20.19,16.57,43.08,35.36,67.61,40.11,39.06,7.56,67.92,2.94,88.22-14.11,17.66-14.83,26.4-37,34.11-56.48,10.66-27,19.86-50.32,48.66-45.37,36.41,6.25,33.1,39.17,29.61,74-2.3,22.92-4.68,46.62,4.19,63.94,7.23,14.12,17.2,19.92,31.38,18.25,13.17-1.55,29.16-9.23,47.68-18.13,31.35-15.07,70.37-33.82,117.52-33.86l108.56,0,252.52,0v.38c-3.25,0-325.21-.06-361.08,0-47.07,0-86,18.77-117.36,33.82-18.55,8.91-34.57,16.61-47.8,18.17-14.35,1.69-24.44-4.17-31.75-18.45-8.92-17.41-6.54-41.17-4.23-64.15,3.48-34.68,6.76-67.44-29.3-73.63-28.5-4.89-37.66,18.29-48.26,45.14-7.72,19.57-16.48,41.74-34.21,56.63-20.39,17.13-49.35,21.78-88.53,14.19-24.62-4.76-47.55-23.58-67.77-40.19-20.86-17.12-40.57-33.3-58.23-31-8.62,1.11-16.27,6.43-23.4,16.27-14.08,19.45-33.63,39.35-58.12,59.15a537.29,537.29,0,0,1-77.89,52C982,226.83,926.63,244.55,886.18,244.55Z"></path></g><g class="b"><path class="j" d="M888.15,245q-2.65,0-5.22-.12c-24.1-1.08-41.23-9.57-50.94-25.24-13.72-22.15-17.88-49.39-21.89-75.74-4.93-32.26-9.57-62.72-30.52-83.35-39.62-39-89.05,2-136.84,41.56-32,26.52-62.71,52-88.75,52-9.48,0-18.34-3.36-26.43-11.28C500,115.9,472.9,102.2,444.59,101c-24.78-1.1-46.58,7.14-67.65,15.1-16.87,6.38-32.81,12.4-48.12,12.4H-24.12v-.39H328.82c15.24,0,31.14-6,48-12.37,21.11-8,42.93-16.23,67.8-15.14,28.42,1.26,55.64,15,83.24,42,30,29.41,71.14-4.65,114.65-40.7C666.15,82.24,690.61,62,714,51.6c12.65-5.6,23.84-7.86,34.23-6.9,11.71,1.08,22,6.19,31.62,15.61,21,20.72,25.7,51.25,30.63,83.57,4,26.31,8.17,53.52,21.84,75.6C842,235,859,243.46,883,244.53c38.88,1.74,95-16.48,153.87-50,56.54-32.15,107.06-73.68,135.15-111.1,6.74-9,14-13.81,22.27-14.75,17.7-2,37.58,14.71,58.61,32.41,21.4,18,45.64,38.41,71.58,42.4,38.17,5.88,66.34.3,86.13-17.05,17.21-15.09,25.7-37,33.2-56.26,10.55-27.17,19.65-50.63,49.08-46,37.62,5.91,35.55,39.29,33.37,74.63-1.41,22.85-2.88,46.46,6.37,63.85,7.35,13.83,17.25,19.42,31.17,17.6,12.9-1.7,28.45-9.46,46.46-18.46,30.77-15.37,69.06-34.5,115.62-34.54,35.89-.06,357.83,0,361.08,0v.4c-3.25,0-325.19-.06-361.08,0-46.47,0-84.71,19.15-115.44,34.5C1590,172.38,1572.73,181,1558.72,181c-10.69,0-19.52-5-26.49-18.11-9.29-17.49-7.83-41.16-6.41-64.06,2.17-35.16,4.22-68.37-33-74.22-29.1-4.58-38.16,18.75-48.65,45.76-7.5,19.34-16,41.26-33.3,56.42-14.81,13-34.27,19.4-59,19.4a180,180,0,0,1-27.4-2.26c-26-4-50.34-24.45-71.77-42.49-21-17.65-40.79-34.32-58.32-32.32-8.12.93-15.32,5.7-22,14.59-28.13,37.46-78.7,79-135.28,111.21C980.63,227,926.81,245,888.15,245Z"></path></g><g class="b"><path class="k" d="M890.52,245.55q-3.06,0-6-.17c-22.1-1.24-38-9.52-47.24-24.62-14.23-23.21-19.78-49.88-25.15-75.67-6.59-31.71-12.82-61.66-34.11-83.75-9.87-10.24-20.45-15.88-32.36-17.25-10.58-1.21-21.93,1-34.72,6.77-23.72,10.69-48.34,32-72.15,52.54-31.51,27.21-61.72,53.32-87.49,53.32-9.13,0-17.69-3.27-25.56-10.93-27.16-26.43-54.06-40.11-82.25-41.81-24.69-1.49-46.54,6.07-67.67,13.39-16.63,5.76-32.34,11.2-47.46,11.2H-24.12v-.42H328.36c15.05,0,30.73-5.43,47.33-11.17,21.16-7.33,43.05-14.91,67.82-13.41,28.3,1.7,55.29,15.42,82.52,41.92,29.82,29,70-5.68,112.48-42.41C662.35,82.49,687,61.2,710.77,50.48c12.86-5.8,24.29-8,34.93-6.8,12,1.37,22.68,7.06,32.62,17.37,21.37,22.18,27.61,52.18,34.22,84,5.36,25.76,10.9,52.39,25.09,75.55,9.18,15,25,23.18,46.91,24.42,19.34,1.09,43-3.22,70.23-12.8,24.91-8.75,52.67-22,80.29-38.26,55.08-32.47,105.25-74,134.19-111.15,6.32-8.11,13.17-12.42,20.94-13.19,17.55-1.72,37.51,15.51,58.64,33.76,22.59,19.51,48.2,41.63,75.58,44.78,37.24,4.28,64.71-2.22,84-19.87,16.77-15.35,25-37,32.31-56.09,10.45-27.38,19.48-51,49.52-46.73,38.86,5.56,38,39.42,37.19,75.27-.55,22.75-1.11,46.28,8.5,63.73,7.47,13.54,17.3,18.93,30.95,17,12.66-1.84,27.78-9.7,45.28-18.79,30.18-15.68,67.74-35.18,113.69-35.23,35.91-.07,357.83,0,361.08,0v.42c-3.25,0-325.17-.07-361.08,0-45.85,0-83.36,19.52-113.49,35.18-35.07,18.22-60.41,31.38-76.79,1.67-9.67-17.55-9.11-41.14-8.56-63.94.86-35.66,1.67-69.34-36.83-74.85-29.72-4.25-38.69,19.26-49.07,46.47-7.3,19.14-15.57,40.83-32.42,56.25-19.36,17.73-46.94,24.27-84.31,20-27.5-3.16-53.17-25.32-75.81-44.88-21.06-18.18-40.94-35.36-58.32-33.65-7.65.75-14.41,5-20.65,13-29,37.17-79.19,78.76-134.31,111.26-27.64,16.29-55.43,29.53-80.36,38.29C930.35,241.19,908.72,245.55,890.52,245.55Z"></path></g><g class="b"><path class="l" d="M893,246.08q-3.33,0-6.49-.21c-20.29-1.39-35.06-9.47-43.9-24-14.67-24.18-21.58-50.2-28.26-75.35-8.3-31.25-16.14-60.77-37.83-84.4-10.23-11.14-21.13-17.37-33.32-19-10.82-1.47-22.38.7-35.36,6.65C683.72,60.75,659,83.05,635,104.62c-31,27.94-60.81,54.72-86.32,54.73-8.8,0-17.1-3.19-24.77-10.61-60.08-58.14-107.49-43.23-149.32-30.07-16.35,5.15-31.8,10-46.69,10h-352v-.44h352c14.83,0,30.24-4.85,46.56-10,42-13.2,89.49-28.16,149.76,30.16,29.61,28.66,68.89-6.69,110.48-44.13,24-21.59,48.78-43.91,72.9-55,13.06-6,24.71-8.18,35.61-6.7,12.3,1.68,23.28,8,33.58,19.17,21.77,23.71,29.62,53.28,37.93,84.58,6.67,25.13,13.57,51.11,28.22,75.25,8.76,14.42,23.41,22.44,43.55,23.81,18.62,1.27,41.6-3.1,68.32-13,24.46-9.05,50.94-22.25,78.69-39.24C1086,161,1137,118.45,1166.53,82.05c5.92-7.29,12.35-11.13,19.67-11.73,17.36-1.43,37.37,16.33,58.56,35.12,23.81,21.12,50.79,45.05,79.62,47.25,36.3,2.77,63.07-4.6,81.82-22.54,16.32-15.61,24.35-37.06,31.43-56,10.34-27.64,19.27-51.51,50-47.53,40.13,5.19,40.58,39.54,41.06,75.92.29,22.65.6,46.08,10.59,63.58,16.41,28.77,40.93,15.52,74.86-2.81,29.58-16,66.39-35.87,111.72-35.92,12,0,55.59,0,108.59,0,106.29,0,250.32,0,252.49,0v.44c-3.25,0-325.15-.08-361.08,0-45.22,0-82,19.91-111.51,35.87-34.15,18.45-58.82,31.78-75.45,2.63-10-17.59-10.35-41.08-10.65-63.79-.48-36.17-.93-70.34-40.68-75.49-13.9-1.8-24.14,1.92-32.21,11.71-7.3,8.83-12.15,21.81-17.29,35.54-7.1,19-15.14,40.45-31.54,56.14s-38.56,23.22-67.81,23.23q-6.92,0-14.34-.57c-29-2.21-56-26.2-79.88-47.36-21.11-18.73-41.07-36.43-58.24-35-7.19.59-13.52,4.37-19.36,11.57-29.54,36.43-80.56,79.06-133.14,111.26-27.78,17-54.28,30.22-78.77,39.28C931.21,241.65,910.38,246.08,893,246.08Z"></path></g><g class="b"><path class="m" d="M895.44,246.63q-3.47,0-6.73-.26c-18.66-1.51-32.41-9.39-40.86-23.45-15-25-23.23-50.23-31.17-74.63-10-30.93-19.55-60.15-41.77-85.46-12-13.66-24.85-20.64-39.32-21.35C701.75,39.83,666,73.37,631.35,105.81c-30.61,28.68-60,56.18-85.24,56.18-8.5,0-16.54-3.1-24-10.3C462.76,94.6,415.2,108.08,373.23,120c-16,4.55-31.16,8.83-45.79,8.83H-24.12v-.46H327.44c14.56,0,29.67-4.28,45.67-8.81,42.08-11.92,89.78-25.44,149.3,31.84,29.43,28.33,67.9-7.72,108.62-45.89C665.72,73,701.57,39.36,735.61,41c14.61.71,27.57,7.75,39.65,21.51,22.28,25.38,31.79,54.64,41.86,85.61,7.93,24.39,16.13,49.6,31.13,74.54,8.37,13.92,22,21.74,40.5,23.23,34.1,2.74,85-16.23,143.37-53.42,50.46-32.17,100.92-74.75,131.69-111.14,5.54-6.55,11.58-9.95,18.45-10.4,17.14-1.11,36.27,16.32,58.41,36.51,25,22.81,53.37,48.66,83.68,49.81,35.35,1.34,61.4-6.86,79.64-25.09,15.87-15.87,23.67-37.14,30.55-55.9,10.24-27.94,19.09-52.06,50.44-48.41,41.41,4.82,43.14,39.68,45,76.6,1.12,22.55,2.27,45.88,12.62,63.41,16.64,28.2,40.5,14.79,73.52-3.78,29-16.28,65.05-36.56,109.73-36.62,12,0,55.61,0,108.62,0,106.29,0,250.29,0,252.46,0V128c-3.25,0-325.13-.09-361.08,0-44.56.06-80.57,20.29-109.5,36.56-33.25,18.69-57.28,32.19-74.15,3.6-10.4-17.63-11.56-41-12.69-63.62-1.82-36.71-3.54-71.39-44.56-76.16-14.2-1.66-24.59,2.2-32.72,12.14-7.34,9-12.15,22.08-17.24,36-6.89,18.81-14.71,40.13-30.66,56.07-17,17-40.86,25.37-72.64,25.37q-3.6,0-7.33-.15c-30.48-1.15-58.91-27.07-84-49.93-21.15-19.28-41.11-37.49-58.07-36.38-6.74.43-12.67,3.78-18.12,10.23-30.8,36.42-81.3,79-131.8,111.22C977.65,227.75,929.43,246.63,895.44,246.63Z"></path></g><g class="b"><path class="n" d="M898.33,247.21q-3.66,0-7.09-.32c-17.19-1.61-30-9.31-38.1-22.89-15.19-25.49-24.57-49.75-33.65-73.22-11.93-30.84-23.2-60-46.13-87.2-12.59-15-26-22.59-41.09-23.33C698,38.57,662.34,73.35,627.84,107c-30.21,29.45-59.15,57.67-84.26,57.67-8.21,0-16-3-23.32-10-58.62-56.09-106.4-44-148.54-33.41-15.65,4-30.43,7.68-44.73,7.68H-24.12v-.49H327c14.24,0,29-3.72,44.61-7.66,42.27-10.66,90.18-22.74,149,33.53,29.28,28,67-8.73,106.9-47.65,34.57-33.71,70.32-68.56,104.79-66.87,15.2.75,28.75,8.43,41.44,23.5,23,27.29,34.26,56.45,46.21,87.33,9.07,23.45,18.45,47.7,33.61,73.15,8,13.44,20.71,21.07,37.73,22.66,17.24,1.61,38.92-2.9,64.44-13.4,22.78-9.38,48.08-23.27,75.19-41.29,47.88-31.82,97.77-74.38,130.18-111.07,5.19-5.86,10.84-8.86,17.28-9.17,16.92-.78,36,17.14,58.18,37.9,26.23,24.6,56,52.48,87.78,52.48,34.38,0,59.71-9,77.43-27.51,15.43-16.13,23-37.25,29.69-55.89,10.13-28.27,18.88-52.69,50.91-49.37,42.71,4.43,45.74,39.83,49,77.3,1.92,22.45,3.9,45.66,14.6,63.22,16.86,27.65,40.08,14.06,72.22-4.74,28.37-16.6,63.68-37.25,107.7-37.32,36-.09,357.83,0,361.08,0V128c-3.25,0-325.11-.1-361.08,0-43.89.06-79.13,20.68-107.45,37.25-19.13,11.19-35.13,20.54-48.54,20.54-9.29,0-17.34-4.49-24.34-16-10.76-17.65-12.75-40.92-14.68-63.43-3.18-37.27-6.2-72.47-48.51-76.86-14.5-1.5-25,2.5-33.22,12.6-7.39,9.12-12.15,22.4-17.19,36.46-6.7,18.68-14.29,39.85-29.79,56.05-17.82,18.61-43.26,27.66-77.78,27.66h0c-32,0-61.81-28-88.11-52.6-22.06-20.69-41.12-38.55-57.83-37.77-6.3.29-11.84,3.24-16.93,9-32.45,36.72-82.36,79.31-130.28,111.16-27.14,18-52.47,31.94-75.28,41.32C933.69,242.6,914.36,247.21,898.33,247.21Z"></path></g><g class="b"><path class="o" d="M901.3,247.81a69.45,69.45,0,0,1-7.29-.38c-15.86-1.7-27.83-9.22-35.58-22.35-15-25.35-25.29-48.25-35.26-70.39-14-31.21-27.32-60.7-51.36-90.37C758.61,48,744.6,39.75,729,39c-34.64-1.7-70.17,34.32-104.53,69.15-29.83,30.23-58.41,59.19-83.34,59.19-8,0-15.54-3-22.67-9.73-58-55.16-106-44.52-148.43-35.13-15.21,3.37-29.56,6.55-43.48,6.55H-24.12v-.51H326.53c13.86,0,28.19-3.17,43.37-6.53,42.51-9.42,90.7-20.1,148.89,35.25,29.14,27.73,66.13-9.76,105.29-49.45,34.45-34.9,70-71,104.92-69.3,15.78.78,29.91,9.12,43.2,25.53,24.08,29.71,37.37,59.23,51.44,90.47,10,22.13,20.26,45,35.22,70.34,7.67,13,19.51,20.43,35.2,22.11,39.47,4.22,95.63-28.12,135.79-56,53.24-37,101.3-81.56,128.53-111,4.84-5.23,10.13-7.86,16.15-8,16.65-.47,35.76,18,57.88,39.29,27.45,26.48,58.56,56.48,91.89,55.23s58-11,75.23-29.81c15-16.37,22.34-37.37,28.82-55.9,10-28.66,18.68-53.41,51.39-50.42,44,4,48.37,40,53,78,2.7,22.34,5.49,45.43,16.53,63,17.06,27.11,39.66,13.35,71-5.71,27.76-16.9,62.3-37.94,105.64-38,36-.1,357.83,0,361.08,0v.51c-3.25,0-325.09-.1-361.08,0-43.2.07-77.67,21.07-105.37,37.94-18.82,11.46-34.52,21-47.8,21-9,0-16.86-4.37-23.84-15.48-11.11-17.66-13.91-40.82-16.61-63.21-4.58-37.85-8.89-73.59-52.52-77.58-14.79-1.35-25.52,2.8-33.73,13.08-7.43,9.29-12.14,22.74-17.13,37-6.5,18.58-13.87,39.64-28.93,56.09-17.3,18.9-42,28.7-75.58,30-.69,0-1.38,0-2.06,0-32.76,0-63.24-29.41-90.2-55.42C1210,90.32,1191,72,1174.55,72.42c-5.89.17-11.06,2.75-15.8,7.87-27.25,29.44-75.34,74.08-128.61,111.06C992.32,217.6,940.31,247.81,901.3,247.81Z"></path></g><g class="b"><path class="p" d="M904.36,248.42A61,61,0,0,1,897,248c-14.64-1.78-25.83-9.12-33.28-21.83-13.77-23.52-24.28-44-34.44-63.73-17.62-34.27-32.83-63.86-59-97.36C756.46,47.43,741.9,38.48,725.73,37.7c-35-1.7-70.35,35.56-104.57,71.58-29.47,31-57.7,60.74-82.49,60.74-7.71,0-15.08-2.87-22.06-9.47-57.42-54.3-105.83-45-148.55-36.87-14.67,2.8-28.53,5.45-42,5.45H-24.12v-.52H326.07c13.41,0,27.25-2.65,41.89-5.45,42.84-8.2,91.4-17.48,149,37,13.24,12.52,28.54,12.52,48.17,0,17.52-11.15,36-30.64,55.64-51.28,34.29-36.1,69.74-73.44,105-71.74,16.34.79,31,9.81,44.92,27.57,26.22,33.55,41.44,63.16,59.07,97.45,10.16,19.76,20.66,40.19,34.43,63.7,7.35,12.56,18.42,19.82,32.88,21.57,67.2,8.15,194.17-101.9,258.61-168.21,4.52-4.66,9.46-6.94,15.09-7h.19c16.34,0,35.33,18.85,57.31,40.68,28.67,28.46,61.17,60.71,96,58.09,32.46-2.45,56.35-12.92,73-32,14.54-16.62,21.67-37.53,28-56,9.91-29.08,18.47-54.19,51.86-51.53,45.37,3.61,51,40.11,57,78.76,3.46,22.23,7,45.21,18.42,62.77,17.25,26.6,39.25,12.64,69.7-6.67,27.14-17.21,60.91-38.63,103.55-38.71,36-.11,357.83,0,361.08,0v.53c-3.25,0-325.06-.11-361.08,0-42.48.08-76.18,21.45-103.26,38.63-15.26,9.67-28.43,18-40,20.62-12.67,2.84-22.34-1.64-30.43-14.11-11.45-17.66-15-40.7-18.49-63-6-38.43-11.61-74.74-56.56-78.31-15.1-1.21-26,3.11-34.26,13.58-7.47,9.47-12.13,23.13-17,37.59-6.31,18.49-13.45,39.45-28.06,56.15-16.79,19.18-40.8,29.71-73.4,32.17-1.36.1-2.72.15-4.06.15-33.56,0-64.73-31-92.37-58.4-21.9-21.74-40.82-40.52-56.94-40.52h-.18c-5.49,0-10.3,2.28-14.72,6.83C1093.81,143.65,973.29,248.41,904.36,248.42Z"></path></g><g class="b"><path class="q" d="M907.55,249.05a55.17,55.17,0,0,1-7.39-.48c-13.53-1.85-24-9-31.16-21.33-8.18-14.08-15.38-26.71-22.35-38.93-26.12-45.8-45-78.9-77.95-122.49-14.38-19-29.49-28.65-46.18-29.44C706.75,35.64,689.45,43,669.65,59,652.1,73.11,634.75,92.07,618,110.4c-28.91,31.58-56.21,61.42-80.51,62.33-8.33.31-15.75-2.71-22.69-9.23C457.83,110,409,117.87,365.83,124.84c-14,2.26-27.3,4.41-40.21,4.41H-24.12v-.55H325.62c12.86,0,26.11-2.14,40.12-4.41,43.25-7,92.27-14.91,149.42,38.81,6.83,6.42,14.12,9.39,22.29,9.08,24.07-.91,51.29-30.66,80.12-62.15,16.79-18.35,34.15-37.32,51.73-51.48,19.91-16,37.33-23.47,53.24-22.72,16.87.79,32.11,10.49,46.6,29.65,33,43.63,51.86,76.73,78,122.55,7,12.22,14.17,24.86,22.35,38.93,7.06,12.16,17.41,19.24,30.76,21.06,28.52,3.88,71.55-15.88,127.88-58.75,46.07-35.07,90.91-77.59,124.82-110.73,18.35-17.92,42.81,7.08,71.14,36,29.89,30.54,63.75,65.17,100.16,61,31.5-3.56,54.68-14.7,70.86-34.05,14.1-16.86,21-37.7,27.09-56.08,9.78-29.53,18.24-55,52.31-52.72,46.72,3.18,53.74,40.26,61.17,79.52,4.18,22.11,8.51,45,20.24,62.52,17.43,26.11,38.85,11.95,68.5-7.64,26.51-17.52,59.5-39.32,101.42-39.41,36-.11,357.83,0,361.08,0v.55c-3.25,0-325-.12-361.08,0-41.75.08-74.67,21.83-101.12,39.31-14.83,9.8-27.64,18.27-39,21-12.46,3-22.07-1.29-30.25-13.53-11.79-17.65-16.13-40.56-20.32-62.73-7.4-39-14.38-75.92-60.67-79.07-15.41-1.05-26.47,3.44-34.78,14.12-7.51,9.65-12.1,23.53-17,38.22-6.1,18.43-13,39.32-27.19,56.26-16.27,19.47-39.57,30.67-71.22,34.25a53.25,53.25,0,0,1-6,.34c-34.36,0-66.26-32.6-94.59-61.55-28.11-28.73-52.4-53.55-70.35-36-33.93,33.14-78.78,75.68-124.88,110.77C976.66,229.12,936.05,249.05,907.55,249.05Z"></path></g><g class="b"><path class="r" d="M910.88,249.7a48.52,48.52,0,0,1-7.15-.51c-12.63-1.85-22.53-8.88-29.44-20.87C834.23,158.82,810,125.06,767.14,66.56c-15-20.43-30.6-30.74-47.79-31.52-15.89-.72-33.25,6.94-53,23.42-17.52,14.59-34.77,34.14-51.45,53-28.48,32.28-55.39,62.77-79.49,63.94-8.2.39-15.54-2.55-22.43-9-56.6-52.87-106.07-46.31-149.72-40.52-13.28,1.77-25.83,3.43-38.08,3.43H-24.12v-.57H325.16c12.21,0,24.74-1.67,38-3.43,43.78-5.8,93.39-12.39,150.19,40.67,6.78,6.33,14,9.22,22,8.83,23.85-1.15,50.68-31.55,79.08-63.74C631.15,92.2,648.41,72.64,666,58c19.89-16.57,37.36-24.27,53.41-23.54,17.38.79,33.16,11.17,48.24,31.75,42.87,58.52,67.11,92.29,107.17,161.81,6.83,11.84,16.59,18.77,29,20.59,13.18,1.94,29.78-1.78,49.35-11.05,16.93-8,36.68-20.49,58.69-37.07,40.55-30.54,81.81-69.45,115-100.72,8.39-7.91,16.31-15.38,23.41-21.94,17.73-16.39,41.8,8.94,69.67,38.26,15.71,16.53,31.95,33.62,49.47,46.33,20,14.51,37.93,20.32,54.83,17.77,30.57-4.61,53-16.39,68.71-36,13.66-17.11,20.33-37.89,26.22-56.23,9.64-30,18-56,52.75-54,48.08,2.74,56.47,40.41,65.35,80.3,4.89,22,10,44.72,22,62.25,8.11,11.8,17.48,15.85,29.46,12.73,11.07-2.89,23.48-11.44,37.86-21.34,25.88-17.82,58.09-40,99.27-40.1,36.06-.12,357.83,0,361.08,0v.58c-3.25,0-325-.13-361.08,0-41,.09-73.13,22.22-98.94,40-14.42,9.94-26.88,18.51-38.05,21.42-12.25,3.19-21.8-.92-30.07-12.95-12.12-17.63-17.2-40.42-22.1-62.46-8.84-39.66-17.18-77.13-64.82-79.84-15.74-.9-26.95,3.76-35.3,14.66-7.55,9.86-12.08,24-16.87,38.92-5.91,18.38-12.59,39.22-26.32,56.41-15.76,19.74-38.35,31.59-69.07,36.22a53,53,0,0,1-7.87.59c-14.75,0-30.33-6.09-47.39-18.47-17.56-12.74-34.55-30.62-49.55-46.39-27.66-29.11-51.55-54.24-68.86-38.24-7.09,6.56-15,14-23.41,21.94-33.16,31.27-74.44,70.2-115,100.76-22,16.6-41.82,29.09-58.79,37.13C937.11,245.81,922.85,249.7,910.88,249.7Z"></path></g><g class="b"><path class="s" d="M914.48,250.37a44.92,44.92,0,0,1-6.66-.47c-12-1.77-21.48-8.67-28.25-20.5-27.8-48.62-50.72-78.4-75-109.92-12.23-15.89-24.87-32.33-39-52.17C750,45.45,733.89,34.45,716.21,33.68c-16-.69-33.39,7.24-53.13,24.24C645.6,73,628.45,93.12,611.87,112.6c-28.09,33-54.62,64.15-78.54,65.55-8.1.47-15.35-2.38-22.2-8.74-56.4-52.36-106.63-47.1-150.95-42.45-12.36,1.29-24,2.51-35.48,2.51H-24.12v-.59H324.7c11.41,0,23.07-1.22,35.42-2.52,44.44-4.66,94.82-9.94,151.42,42.61,6.72,6.24,13.84,9.05,21.75,8.58,23.67-1.38,50.12-32.45,78.13-65.34C628,92.72,645.17,72.56,662.69,57.47c19.86-17.11,37.38-25.09,53.55-24.38C734.12,33.87,750.42,45,766.08,67c14.11,19.84,26.75,36.27,39,52.15,24.28,31.55,47.21,61.34,75,110,6.67,11.66,16,18.46,27.82,20.21,21.65,3.2,51.74-10,92-40.28,34.75-26.17,71-60.42,102.94-90.63,16.33-15.44,31.75-30,44.66-41.26,17.13-14.93,40.8,10.71,68.21,40.4,15.52,16.81,33.11,35.87,51.35,49.32,20.84,15.38,39.52,21.24,57.1,17.93,29.65-5.6,51.43-18,66.59-37.88,13.21-17.34,19.65-38.09,25.33-56.4,4.74-15.26,9.21-29.67,16.85-39.83,8.51-11.31,20-16.22,36.32-15.47,49.45,2.28,59.23,40.55,69.57,81.07,5.59,21.87,11.36,44.48,23.74,62,5.41,7.64,11.25,11.9,17.87,13,13.66,2.28,29.71-9.24,48.3-22.59,25.24-18.13,56.66-40.69,97.09-40.79,36.08-.13,357.84,0,361.08,0v.6c-3.25,0-325-.14-361.08,0-40.24.1-71.57,22.59-96.74,40.67-17.71,12.72-32,23-44.94,23a23.13,23.13,0,0,1-3.81-.31c-6.78-1.14-12.76-5.48-18.26-13.25-12.44-17.6-18.23-40.26-23.82-62.18-10.29-40.3-20-78.36-69-80.63-16-.74-27.43,4.1-35.81,15.24-7.58,10.08-12,24.44-16.76,39.65-5.69,18.35-12.15,39.16-25.43,56.59-15.25,20-37.15,32.47-67,38.09a51.82,51.82,0,0,1-9.73.91c-14.89,0-30.64-6.25-47.84-18.94-18.28-13.49-35.89-32.57-51.43-49.4-27.2-29.45-50.69-54.89-67.38-40.35-12.89,11.23-28.31,25.81-44.64,41.24-32,30.23-68.21,64.49-103,90.67C963.84,236.93,935.66,250.37,914.48,250.37Z"></path></g><g class="b"><path class="t" d="M918,251.05a40.21,40.21,0,0,1-5.88-.41c-11.44-1.65-20.61-8.44-27.27-20.16C859.35,185.53,837,159,813.31,131,797.65,112.43,781.46,93.25,764,68.05c-16.12-23.3-32.78-35-50.92-35.74-16.12-.67-33.53,7.53-53.22,25.06-17.45,15.54-34.49,36.26-51,56.31-27.71,33.71-53.89,65.55-77.66,67.19-8,.55-15.16-2.23-22-8.51-56.4-52-107.61-48-152.8-44.48-11.23.88-21.83,1.71-32.26,1.71H-24.12V129H324.25c10.4,0,21-.83,32.21-1.71,45.31-3.55,96.67-7.57,153.27,44.64,6.67,6.16,13.71,8.89,21.5,8.35,23.5-1.62,49.6-33.36,77.23-67,16.49-20.06,33.54-40.8,51-56.37,19.83-17.65,37.38-25.9,53.66-25.22,18.36.76,35.17,12.54,51.41,36C782,92.87,798.14,112,813.78,130.58c23.7,28.08,46.08,54.6,71.62,99.59C892,241.72,901,248.4,912.22,250c19.34,2.79,45.71-8.85,80.63-35.6,30.49-23.36,63.47-55.16,92.56-83.22,21.84-21.05,42.47-40.94,59.39-54.78,16.54-13.52,39.8,12.41,66.74,42.45,16.06,17.91,34.27,38.21,53.22,52.44,21.7,16.29,41.12,22.19,59.38,18.05,28.75-6.52,49.84-19.48,64.5-39.64,12.78-17.58,19-38.32,24.45-56.61,4.65-15.54,9-30.23,16.71-40.61,8.54-11.56,20.24-16.68,36.84-16.08,50.84,1.82,62,40.7,73.85,81.87,6.25,21.74,12.72,44.23,25.41,61.69,5.46,7.51,11.31,11.64,17.87,12.63,13.51,2,29.11-9.66,47.18-23.19,24.6-18.43,55.22-41.37,94.88-41.47,12,0,55.76-.07,108.84-.07,106.28,0,250.08.07,252.24.07v.62c-3.25,0-325-.14-361.07,0-39.47.1-70,23-94.51,41.34-18.18,13.62-33.89,25.39-47.65,23.31-6.74-1-12.72-5.22-18.28-12.87-12.76-17.56-19.24-40.09-25.51-61.89-11.76-40.95-22.88-79.62-73.27-81.42-16.39-.59-27.92,4.44-36.32,15.83-7.61,10.3-12,24.93-16.62,40.42-5.48,18.34-11.7,39.13-24.54,56.79-14.75,20.29-36,33.34-64.86,39.89-18.45,4.18-38-1.76-59.89-18.16-19-14.27-37.23-34.6-53.32-52.53-26.72-29.79-49.8-55.53-65.88-42.38-16.9,13.82-37.52,33.7-59.35,54.75-29.1,28.07-62.09,59.88-92.61,83.26C961.57,239.17,936.87,251.05,918,251.05Z"></path></g><g class="b"><path class="u" d="M921.65,251.75a37.08,37.08,0,0,1-5.09-.35c-11-1.51-19.85-8.19-26.41-19.84-25-44.3-49.1-70.34-72.44-95.52-17.86-19.27-36.33-39.19-55.23-67.24C745.8,44,728.65,31.64,710.06,30.91c-16.22-.63-33.64,7.84-53.29,25.91-17.4,16-34.33,37.31-50.7,57.92-27.37,34.45-53.22,67-76.85,68.86-7.86.62-15-2.09-21.74-8.29C450.82,123.38,398.33,126.2,352,128.68c-9.81.53-19.07,1-28.23,1H-24.12v-.64H323.79c9.14,0,18.39-.5,28.19-1,46.44-2.49,99.07-5.31,155.94,46.8,6.62,6.07,13.58,8.73,21.25,8.12,23.35-1.84,49.12-34.28,76.39-68.62,16.39-20.63,33.34-42,50.78-58,19.78-18.18,37.36-26.7,53.75-26.07,18.8.74,36.12,13.22,52.93,38.17,18.87,28,37.32,47.91,55.16,67.16,23.37,25.21,47.53,51.28,72.53,95.64,6.46,11.47,15.19,18,25.94,19.53,39.24,5.43,100.92-55.88,155.33-110,25.77-25.61,50.1-49.8,70.11-65.07,7.34-5.61,16.45-3.65,28.69,6.18,10.92,8.77,23.39,23.07,36.58,38.21,16.6,19,35.42,40.64,55.1,55.69C1285,193,1305.17,199,1324.11,194c27.87-7.39,48.29-20.91,62.45-41.33,12.35-17.82,18.3-38.56,23.56-56.85,4.55-15.84,8.85-30.81,16.54-41.43,8.56-11.82,20.43-17.13,37.36-16.7,12.57.32,23.16,2.83,32.39,7.65A62,62,0,0,1,1517.75,64c11.35,15.31,17.71,35.25,24.44,56.36,6.9,21.62,14,44,27,61.4,5.52,7.38,11.36,11.39,17.86,12.26,13.38,1.78,28.54-10.08,46.11-23.81,24-18.73,53.75-42,92.63-42.15,36.12-.15,357.84,0,361.08,0v.64c-2.16,0-145.95-.07-252.22-.07-53.11,0-96.82,0-108.85.07-38.66.11-68.37,23.34-92.25,42-16.47,12.88-30.85,24.12-43.77,24.12a21.86,21.86,0,0,1-2.81-.18c-6.69-.89-12.67-5-18.29-12.51-13.08-17.51-20.23-39.92-27.14-61.6-13.27-41.6-25.8-80.89-77.58-82.21-16.7-.43-28.39,4.79-36.82,16.43-7.62,10.53-11.9,25.44-16.44,41.23-5.27,18.34-11.25,39.13-23.65,57-14.25,20.56-34.79,34.16-62.82,41.59a51.86,51.86,0,0,1-13.34,1.75c-15.23,0-31.34-6.62-48.86-20-19.73-15.09-38.57-36.71-55.19-55.78-26.25-30.12-48.92-56.13-64.4-44.3-20,15.25-44.3,39.42-70,65C1020.2,193.18,961.29,251.74,921.65,251.75Z"></path></g><g class="b"><path class="v" d="M925.42,252.45a34.33,34.33,0,0,1-4.35-.27c-10.52-1.37-19.15-8-25.64-19.54-24.95-44.61-50.22-69.49-74.66-93.55-19.69-19.38-40-39.42-59.84-69.54-17.25-26.25-34.88-39.34-53.89-40-16.28-.6-33.74,8.15-53.34,26.74-17.35,16.46-34.17,38.36-50.43,59.54-27,35.21-52.58,68.46-76.09,70.55-7.76.68-14.8-2-21.52-8.08-57.31-52.16-111.48-50.45-159.28-48.94-8,.26-15.54.5-23.05.5H-24.12v-.67H323.33c7.5,0,15-.24,23-.49,47.92-1.51,102.24-3.23,159.75,49.11,6.58,6,13.45,8.57,21,7.9,23.22-2.06,48.67-35.2,75.62-70.28,16.28-21.2,33.12-43.12,50.51-59.62C673,37,690.58,28.24,707.06,28.84c19.25.71,37.05,13.9,54.43,40.34,19.76,30.07,40.09,50.08,59.74,69.44,24.48,24.09,49.78,49,74.78,93.69,6.38,11.4,14.84,17.87,25.14,19.21,16,2.08,37.06-7.8,64.46-30.21,24.28-19.85,50.42-46.85,75.7-73,28.56-29.5,55.54-57.36,78.06-73.33,7.09-5,16-2.66,27.92,7.44,10.69,9,22.94,23.49,35.91,38.81,17.13,20.23,36.55,43.15,57,59,23.41,18.23,44.32,24.2,63.91,18.24,27-8.21,46.8-22.26,60.46-43,11.92-18.06,17.63-38.81,22.67-57.12,4.44-16.15,8.63-31.4,16.34-42.27,8.57-12.1,20.6-17.61,37.86-17.33,12.9.2,23.85,2.65,33.45,7.48a65.28,65.28,0,0,1,22.43,18.81c12.08,15.49,19.16,35.74,26.66,57.17s15.3,43.75,28.63,61.11c5.56,7.26,11.4,11.15,17.84,11.9,13.24,1.53,28-10.5,45.06-24.45,23.29-19,52.29-42.69,90.36-42.81,36.14-.16,357.84,0,361.08,0v.67c-3.24,0-324.94-.16-361.07,0-37.85.12-66.74,23.71-89.95,42.66-17.19,14-32,26.16-45.55,24.59-6.64-.77-12.62-4.75-18.3-12.15-13.39-17.45-21.19-39.74-28.73-61.3-14.78-42.26-28.75-82.18-81.92-83-17-.26-28.87,5.15-37.31,17.05-7.63,10.78-11.82,26-16.24,42.07-5,18.35-10.78,39.16-22.76,57.3-13.74,20.83-33.64,35-60.81,43.23-19.82,6-40.93,0-64.52-18.35-20.46-15.93-39.91-38.89-57.06-59.14-25.77-30.43-48-56.7-62.93-46.14-22.47,15.93-49.43,43.77-78,73.25-25.3,26.12-51.45,53.14-75.76,73C960.89,242.39,941,252.45,925.42,252.45Z"></path></g><g class="b"><path class="w" d="M929.29,253.18a29.93,29.93,0,0,1-3.68-.22c-10.1-1.22-18.47-7.69-24.89-19.24-25.19-45.34-51.77-69.29-77.48-92.45-21.34-19.23-43.41-39.12-63.86-71-17.81-27.73-35.9-41.54-55.33-42.2-16.37-.56-33.83,8.46-53.36,27.58-17.3,16.93-34,39.42-50.17,61.16-26.72,36-52,69.94-75.37,72.25-7.66.75-14.63-1.82-21.32-7.86-58.5-52.89-114.95-52.12-164.75-51.44-5.6.08-10.89.15-16.2.15h-347v-.69h347c5.3,0,10.59-.07,16.19-.15,49.93-.68,106.52-1.45,165.22,51.62,6.54,5.9,13.33,8.42,20.79,7.68,23.11-2.28,48.26-36.13,74.89-72,16.18-21.76,32.9-44.27,50.24-61.24,19.67-19.26,37.3-28.35,53.87-27.78C723.74,28.07,742,42,760,69.92c20.4,31.78,41.45,50.75,63.74,70.83,25.75,23.2,52.38,47.19,77.62,92.63,6.4,11.51,14.37,17.69,24.38,18.9,32.75,3.94,80.65-47.76,127-97.78,30.51-32.95,59.34-64.07,84-80.19,6.84-4.47,15.47-1.72,27.15,8.65,10.45,9.26,22.48,23.88,35.23,39.35,35.38,43,79.43,96.47,125,80.83,26.2-9,45.34-23.56,58.51-44.51,11.5-18.29,17-39.07,21.77-57.41,4.32-16.47,8.4-32,16.11-43.14,8.58-12.38,20.76-18.08,38.35-18,13.24.08,24.53,2.47,34.52,7.31a68.65,68.65,0,0,1,23.53,19c12.81,15.68,20.63,36.23,28.9,58,8.13,21.39,16.54,43.51,30.17,60.81,5.61,7.13,11.45,10.91,17.83,11.54,13.1,1.29,27.44-10.93,44-25.09,22.64-19.31,50.81-43.34,88.07-43.47,36.16-.17,357.84,0,361.08,0v.69c-3.24,0-324.92-.17-361.07,0-37,.12-65.08,24.07-87.63,43.3-15.88,13.55-29.71,25.35-42.54,25.35a19.19,19.19,0,0,1-2-.1c-6.58-.65-12.57-4.51-18.3-11.79-13.7-17.39-22.12-39.56-30.27-61-16.33-42.93-31.74-83.49-86.31-83.82h-.48c-17.09,0-29,5.62-37.3,17.68-7.64,11-11.71,26.52-16,42.92-4.82,18.39-10.29,39.23-21.84,57.61-13.26,21.09-32.52,35.74-58.88,44.79a51.31,51.31,0,0,1-16.78,2.82c-39.91,0-77.78-46-109-83.86C1173.22,92,1151.38,65.51,1137,74.89c-24.59,16.07-53.38,47.16-83.87,80.08C1008.43,203.28,962.22,253.18,929.29,253.18Z"></path></g><g class="b"><path class="x" d="M933.2,253.91a26.94,26.94,0,0,1-3-.16c-9.69-1.06-17.83-7.44-24.18-19-25.55-46.29-53.53-69.43-80.6-91.81-24-19.81-46.62-38.53-67.59-71.94-18.35-29.24-36.9-43.76-56.72-44.39-16.43-.51-33.91,8.78-53.38,28.43-17.24,17.4-33.83,40.47-49.88,62.78-26.43,36.74-51.39,71.44-74.72,74-7.56.82-14.46-1.68-21.11-7.65-27-24.24-56.32-39.78-89.62-47.49-29.13-6.76-56.61-6.7-83.17-6.65H-24.12v-.71H329.22c26.61,0,54.12-.11,83.33,6.66,33.42,7.75,62.84,23.34,89.93,47.66,6.49,5.83,13.21,8.27,20.57,7.48,23-2.49,47.88-37.07,74.21-73.68,16.07-22.33,32.68-45.43,50-62.86,19.62-19.8,37.26-29.17,53.91-28.64,20.06.64,38.81,15.26,57.29,44.72,20.91,33.31,43.51,52,67.44,71.78,27.12,22.42,55.16,45.6,80.77,92C913,245.91,920.69,252,930.27,253c13.49,1.48,30.8-7.43,52.88-27.23,19.76-17.71,41.46-42.34,62.44-66.15,30.4-34.51,61.84-70.2,88.37-86.06,6.6-3.94,15-.83,26.41,9.78,10.2,9.5,22,24.26,34.54,39.89,36.57,45.65,82.08,102.47,129.09,84.46,25.42-9.74,44-24.79,56.63-46,11.08-18.53,16.28-39.36,20.86-57.74,4.19-16.79,8.14-32.65,15.85-44,8.57-12.65,20.9-18.57,38.82-18.63,13.59,0,25.22,2.29,35.6,7.13a72.1,72.1,0,0,1,24.63,19.13c13.56,15.86,22.11,36.73,31.17,58.81,8.72,21.28,17.74,43.28,31.67,60.52,5.66,7,11.49,10.67,17.81,11.19,13,1.05,26.92-11.37,43-25.76,22-19.59,49.32-44,85.74-44.11,36.18-.18,357.84,0,361.08,0v.71c-3.24,0-324.9-.18-361.07,0s-63.39,24.42-85.28,43.93c-15.59,13.91-29.15,26-42,26q-.83,0-1.62-.06c-6.53-.54-12.52-4.28-18.32-11.45-14-17.33-23-39.37-31.77-60.7-9-22-17.56-42.84-31.05-58.62a71.48,71.48,0,0,0-24.39-18.94c-10.19-4.75-21.61-7.07-34.92-7.07h-.38c-17.66.06-29.81,5.88-38.23,18.32-7.64,11.27-11.58,27.07-15.75,43.8-4.6,18.43-9.81,39.31-20.93,57.93-12.78,21.36-31.42,36.51-57,46.31a51.38,51.38,0,0,1-18.53,3.47c-40.77,0-79.46-48.31-111.37-88.15-24.82-31-46.25-57.74-60-49.49-26.42,15.8-57.83,51.44-88.2,85.91-21,23.83-42.7,48.47-62.49,66.21C963,244.86,946.43,253.91,933.2,253.91Z"></path></g><g class="b"><path class="y" d="M937.27,254.66c-.83,0-1.66,0-2.48-.12-9.43-.92-17.11-7-23.5-18.67-26-47.37-55.42-69.77-83.9-91.43-25.56-19.44-49.71-37.81-71.12-72.66-18.9-30.75-37.9-46-58.09-46.57-16.52-.47-34,9.1-53.37,29.27C627.63,72.34,611.14,96,595.2,118.87c-26.15,37.53-50.85,73-74.09,75.71-7.47.88-14.31-1.56-20.93-7.46-27.56-24.56-57.69-40.6-92.09-49-29.9-7.32-58.95-7.93-86.13-7.93H-24.12v-.74H322c27.23,0,56.32.62,86.3,8,34.53,8.46,64.75,24.55,92.41,49.2,6.45,5.74,13.11,8.12,20.35,7.27,22.92-2.7,47.53-38,73.58-75.4,16-22.9,32.46-46.58,49.68-64.48,19.55-20.33,37.18-30,53.92-29.49,20.46.59,39.66,15.93,58.69,46.92,21.35,34.73,45.44,53.05,70.94,72.45,28.55,21.71,58.07,44.16,84.11,91.67,6.25,11.41,13.75,17.4,22.92,18.29,12.46,1.22,28.21-7.36,48.14-26.21,17.89-16.92,36.77-39.56,56.76-63.53,31.12-37.32,63.31-75.91,91.49-91.17,13.81-7.48,34,18.43,59.55,51.22,18.72,24,39.94,51.24,62.54,69.86,26,21.45,49.13,27.45,70.63,18.34,24.67-10.46,42.6-26,54.81-47.48,10.66-18.76,15.59-39.65,19.94-58.08,4-17.12,7.85-33.29,15.54-44.93,8.55-12.93,21-19.06,39.28-19.28,13.92-.17,25.91,2.1,36.68,6.94A75.79,75.79,0,0,1,1516,68.77c14.31,16.06,23.61,37.23,33.45,59.64,9.29,21.17,18.91,43.06,33.14,60.23,5.71,6.89,11.53,10.44,17.79,10.84,12.89.83,26.41-11.81,42.09-26.44,21.3-19.87,47.81-44.61,83.39-44.75,36.2-.18,357.84,0,361.08,0V129c-3.24,0-324.87-.18-361.07,0-35.29.14-61.69,24.76-82.9,44.55-15.8,14.74-29.46,27.48-42.63,26.63-6.48-.41-12.47-4-18.32-11.1-14.3-17.26-23.93-39.19-33.24-60.4-9.82-22.36-19.09-43.48-33.33-59.45a74.94,74.94,0,0,0-25.5-19.1c-10.67-4.8-22.57-7-36.37-6.88-18,.22-30.27,6.25-38.67,19-7.62,11.53-11.42,27.63-15.45,44.69-4.36,18.48-9.3,39.42-20,58.28-12.3,21.63-30.34,37.26-55.17,47.78-21.77,9.23-45.12,3.2-71.38-18.44-22.66-18.67-43.9-45.93-62.65-70-24.34-31.23-45.36-58.21-58.62-51-28.06,15.2-60.2,53.73-91.27,91C1001.71,210.84,965.17,254.65,937.27,254.66Z"></path></g><g class="b"><path class="z" d="M941.32,255.41c-.65,0-1.28,0-1.92-.08-9-.76-16.5-6.77-22.82-18.38-26.43-48.55-57.39-70.25-87.32-91.23-27.12-19-52.73-37-74.55-73.19-10-16.6-20.23-29.1-30.44-37.16-9.44-7.45-19.19-11.36-29-11.61-16.55-.44-34,9.42-53.36,30.11-17.11,18.32-33.49,42.56-49.32,66-25.88,38.32-50.33,74.52-73.51,77.46-7.28.92-14.25-1.52-20.74-7.25-59.6-52.7-122.85-59.81-176.86-59.81H-24.12v-.76H321.5c54.16,0,117.57,7.13,177.36,60,6.41,5.67,13,8,20.14,7.07,22.85-2.9,47.2-39,73-77.13,15.85-23.47,32.24-47.73,49.4-66.1C660.87,32.49,678.54,22.56,695.31,23c20.83.54,40.47,16.62,60.05,49.14,21.73,36.09,47.28,54,74.33,73,30,21,61,42.78,87.56,91.49,6.18,11.37,13.45,17.25,22.21,18,25.7,2.15,59.61-41,95.5-86.68,31.42-40,63.9-81.32,93.59-95.7,13.29-6.44,33.1,19.65,58.17,52.69,19.24,25.36,41,54.1,64.38,73.7,26.91,22.61,50.74,28.6,72.83,18.33,24-11.14,41.31-27.14,53.06-48.91,10.25-19,14.91-40,19-58.45,3.87-17.45,7.54-33.94,15.2-45.83,8.52-13.22,21.14-19.56,39.71-19.95,14.25-.3,26.61,1.91,37.77,6.75A79.51,79.51,0,0,1,1515.56,70c15.07,16.25,25.12,37.72,35.75,60.46,9.86,21.06,20,42.84,34.58,60,5.76,6.78,11.57,10.21,17.77,10.5,12.73.6,25.92-12.26,41.16-27.14,20.62-20.15,46.3-45.22,81-45.37,36.22-.19,357.84,0,361.08,0v.76c-3.24,0-324.85-.19-361.07,0-15.32.06-30.12,4.95-45.26,14.93-13.21,8.71-24.91,20.14-35.24,30.22-15.36,15-28.62,28-41.71,27.36-6.42-.3-12.42-3.82-18.32-10.77-14.6-17.18-24.81-39-34.68-60.12C1540,108.06,1530,86.63,1515,70.47a78.65,78.65,0,0,0-26.63-19.25c-11.05-4.8-23.3-7-37.45-6.69-18.29.38-30.71,6.61-39.08,19.6-7.6,11.78-11.24,28.2-15.11,45.58-4.11,18.54-8.78,39.56-19.09,58.65-11.82,21.92-29.29,38-53.4,49.23-22.39,10.42-46.47,4.38-73.63-18.43-23.4-19.66-45.24-48.43-64.5-73.82-23.88-31.47-44.5-58.64-57.24-52.47-29.54,14.31-62,55.58-93.32,95.49C1000.42,213.09,967.17,255.4,941.32,255.41Z"></path></g><g class="b"><path class="aa" d="M945.45,256.17c-.48,0-1,0-1.44-.05-8.64-.6-15.89-6.52-22.14-18.09-26.93-49.78-59.41-70.81-90.83-91.14-28.64-18.55-55.7-36.06-77.88-73.62C742.89,55.88,732.39,42.79,722,34.37c-9.64-7.78-19.57-11.85-29.51-12.08-16.64-.39-34.08,9.74-53.34,31-17.05,18.78-33.31,43.6-49,67.61-25.63,39.12-49.84,76.08-73,79.23-7.19,1-14.11-1.4-20.57-7.06-48-42.16-105.44-62.65-175.48-62.65H-24.12v-.78H321.05c70.23,0,127.8,20.56,176,62.84,6.36,5.59,12.89,7.84,19.94,6.88,22.79-3.11,46.9-39.92,72.42-78.89,15.74-24,32-48.88,49.11-67.71,19.42-21.39,37.08-31.58,53.93-31.21,21.19.5,41.26,17.3,61.38,51.37,22.09,37.39,49.07,54.86,77.64,73.35,31.49,20.39,64.06,41.47,91.08,91.43,6.12,11.32,13.16,17.1,21.52,17.68,23.81,1.67,54.47-40,87-84.08,31.34-42.54,63.74-86.52,94.82-99.78,12.81-5.46,32.22,20.8,56.81,54.06,19.77,26.74,42.17,57,66.24,77.65,27.8,23.82,52.33,29.8,75,18.31,23.28-11.81,40.08-28.26,51.36-50.31,9.86-19.25,14.23-40.29,18.1-58.86,3.7-17.78,7.19-34.58,14.82-46.73,8.48-13.49,21.23-20,40.12-20.61,14.59-.43,27.3,1.71,38.85,6.56a83.17,83.17,0,0,1,28,19.59c15.84,16.43,26.64,38.22,38.08,61.28,10.39,21,21.15,42.65,36,59.68,5.8,6.66,11.61,10,17.75,10.17,12.65.36,25.44-12.72,40.24-27.87,10-10.25,21.38-21.87,34.24-30.73,14.78-10.19,29.3-15.17,44.38-15.24,36.25-.2,357.84,0,361.08,0v.78c-3.24,0-324.83-.2-361.07,0-14.92.07-29.3,5-43.95,15.1-12.8,8.82-24.12,20.41-34.12,30.63-14.73,15.07-27.47,28.11-40.28,28.11H1607c-6.37-.18-12.36-3.59-18.32-10.43-14.9-17.11-25.67-38.83-36.09-59.85-11.41-23-22.19-44.73-37.94-61.08a82.51,82.51,0,0,0-27.75-19.41c-11.45-4.8-24-6.93-38.53-6.5-18.61.56-31.15,7-39.48,20.25-7.55,12-11,28.76-14.72,46.47-3.87,18.61-8.26,39.71-18.16,59.05-11.37,22.2-28.28,38.77-51.71,50.65a50.88,50.88,0,0,1-23.3,5.75c-16.34,0-33.71-8-52.56-24.15-24.13-20.68-46.56-51-66.36-77.79-23.41-31.67-43.64-59-55.88-53.8-30.88,13.17-63.22,57.07-94.5,99.53C999.68,215.13,969.44,256.17,945.45,256.17Z"></path></g><g class="b"><path class="ab" d="M949.68,256.94l-1,0c-8.26-.45-15.28-6.27-21.48-17.8-27.43-51.06-61.46-71.43-94.38-91.13-30.15-18.06-58.64-35.11-81.16-74-10.55-18.2-21.31-31.88-32-40.67-9.84-8.11-19.95-12.32-30-12.53-16.67-.36-34.12,10.06-53.3,31.8-17,19.24-33.13,44.64-48.75,69.21-25.38,39.94-49.36,77.67-72.45,81-7.12,1-14-1.28-20.4-6.87A263.77,263.77,0,0,0,320.59,130.5H-24.12v-.81H320.59a264.57,264.57,0,0,1,174.64,65.69c6.33,5.51,12.8,7.69,19.76,6.68,22.74-3.3,46.62-40.88,71.9-80.66,15.63-24.59,31.79-50,48.82-69.32,19-21.57,36.42-32.07,53.1-32.07h.81c10.28.21,20.56,4.49,30.54,12.71,10.73,8.85,21.54,22.6,32.14,40.89,22.42,38.67,50.82,55.67,80.89,73.67,33,19.76,67.13,40.19,94.67,91.44,6,11.26,12.86,17,20.82,17.38,22,1.22,49.78-39.14,79.15-81.85,15.16-22.06,30.84-44.86,46.83-63.73,18.15-21.42,34-34.43,48.49-39.76,12.33-4.54,31.37,21.88,55.49,55.33,20.29,28.15,43.29,60.06,68.09,81.72,28.69,25.06,53.92,31,77.13,18.27,22.64-12.45,38.91-29.37,49.75-51.7,9.46-19.51,13.55-40.64,17.16-59.29,3.51-18.11,6.82-35.22,14.41-47.62,8.42-13.77,21.29-20.53,40.49-21.26,14.93-.58,28,1.51,39.95,6.35a87.1,87.1,0,0,1,29.15,19.74c16.61,16.62,28.71,39.74,40.41,62.09,10.93,20.88,22.24,42.47,37.37,59.43,5.85,6.55,11.65,9.77,17.73,9.84h.19c12.49,0,24.86-13.27,39.17-28.62,9.68-10.4,20.66-22.18,33.11-31.14,14.3-10.3,28.39-15.34,43.08-15.41,36.27-.21,357.84,0,361.08,0v.8c-3.24,0-324.81-.21-361.07,0-14.52.07-28.46,5.06-42.62,15.26-12.38,8.92-23.33,20.67-33,31-14.44,15.49-26.92,28.88-39.75,28.88h-.2c-6.32-.07-12.31-3.38-18.32-10.11-15.2-17-26.52-38.67-37.48-59.58-11.67-22.31-23.75-45.37-40.27-61.9a86.1,86.1,0,0,0-28.88-19.56c-11.84-4.81-24.8-6.87-39.62-6.3-18.91.72-31.57,7.36-39.84,20.88-7.51,12.28-10.81,29.32-14.3,47.36-3.62,18.69-7.73,39.88-17.23,59.48-10.91,22.49-27.29,39.52-50.09,52a50.86,50.86,0,0,1-24.79,6.63c-16.53,0-34.14-8.3-53.25-25-24.87-21.72-47.9-53.67-68.21-81.86-23-31.86-42.8-59.37-54.57-55-14.34,5.28-30.09,18.2-48.15,39.51-16,18.85-31.63,41.64-46.78,63.67-15,21.86-29.23,42.51-42.61,57.77C971.28,249.13,959.73,256.94,949.68,256.94Z"></path></g><g class="b"><path class="ac" d="M953.93,257.72h-.68c-7.87-.31-14.68-6-20.81-17.52-28-52.37-63.55-72.1-98-91.18-31.65-17.55-61.56-34.13-84.41-74.25-10.82-19-21.82-33.28-32.7-42.43-10-8.44-20.31-12.81-30.55-13-16.71-.29-34.15,10.38-53.25,32.63-16.91,19.7-32.94,45.69-48.45,70.82-25.15,40.76-48.91,79.27-72,82.83-7,1.08-13.84-1.16-20.24-6.68a288.21,288.21,0,0,0-86.68-51.8c-28.62-10.82-58.38-16.53-86.07-16.53H-24.12v-.82H320.13c27.79,0,57.65,5.73,86.37,16.57a289.28,289.28,0,0,1,86.92,51.95c6.29,5.43,12.7,7.55,19.58,6.49,22.69-3.5,46.35-41.85,71.4-82.45C599.92,97.2,616,71.19,632.93,51.43,652.2,29,669.84,18.21,686.82,18.52c10.43.18,20.88,4.61,31.06,13.18,11,9.21,22,23.56,32.89,42.66,22.74,39.91,52.54,56.44,84.09,73.93,34.53,19.14,70.23,38.93,98.31,91.51,6,11.2,12.56,16.79,20.12,17.08h.61c20.32,0,45.12-38.84,71.37-79.94,28.89-45.25,61.64-96.53,95.18-106.89,11.88-3.66,30.55,22.89,54.2,56.51,20.82,29.6,44.41,63.15,69.95,85.9,29.58,26.35,55.49,32.31,79.22,18.21,22-13.09,37.81-30.45,48.2-53.09,9.07-19.76,12.87-41,16.23-59.74,3.3-18.43,6.42-35.85,14-48.5,8.35-14,21.33-21,40.85-21.91,15.27-.71,28.69,1.3,41,6.15a90.79,90.79,0,0,1,30.29,19.88c17.39,16.81,30.29,40.24,42.77,62.9,11.45,20.8,23.29,42.3,38.73,59.19,5.85,6.4,11.6,9.51,17.58,9.51h.12c12.46-.09,24.53-13.67,38.5-29.39,9.35-10.54,20-22.47,32-31.54,13.82-10.41,27.48-15.5,41.77-15.57,36.29-.22,357.84,0,361.08,0v.82c-3.24,0-324.79-.22-361.07,0-14.11.07-27.61,5.11-41.28,15.41-12,9-22.54,20.92-31.86,31.42-14.11,15.88-26.28,29.59-39.11,29.68h-.13c-6.22,0-12.17-3.2-18.19-9.79-15.5-17-27.37-38.5-38.84-59.34-12.45-22.6-25.33-46-42.62-62.7a90.07,90.07,0,0,0-30-19.71c-12.24-4.81-25.55-6.8-40.7-6.1-19.22.9-32,7.73-40.18,21.51-7.45,12.52-10.56,29.87-13.85,48.23-3.36,18.78-7.18,40.07-16.29,59.93-10.46,22.8-26.34,40.28-48.53,53.46a50.62,50.62,0,0,1-26.24,7.55c-16.72,0-34.57-8.59-54-25.86-25.61-22.81-49.23-56.4-70.08-86-22.52-32-42-59.69-53.28-56.2-33.25,10.27-65.91,61.42-94.72,106.54-13.62,21.32-26.48,41.47-38.62,56.31C974,250.06,963.34,257.72,953.93,257.72Z"></path></g><g class="b"><path class="ad" d="M958.22,258.5h-.34c-7.5-.17-14.09-5.81-20.15-17.23-28.49-53.7-65.66-72.8-101.61-91.27C803,133,771.67,116.88,748.5,75.51c-11.1-19.82-22.35-34.69-33.43-44.21C704.85,22.53,694.41,18,684,17.85c-16.8-.24-34.18,10.7-53.2,33.47C614,71.48,598.07,98,582.68,123.73c-24.93,41.6-48.48,80.89-71.54,84.66-7,1.13-13.71-1-20.08-6.5a321.24,321.24,0,0,0-85.32-52.5c-29.68-12.21-59.43-18.67-86.06-18.67H-24.12v-.84h343.8c26.73,0,56.61,6.47,86.38,18.72a321.9,321.9,0,0,1,85.55,52.65c6.26,5.35,12.6,7.41,19.4,6.3,22.67-3.7,46.12-42.83,70.94-84.26C597.36,97.57,613.3,71,630.18,50.77,649.16,28.06,666.6,17,683.47,17H684c10.58.16,21.21,4.75,31.58,13.66,11.16,9.58,22.47,24.53,33.62,44.44,23,41.14,54.24,57.17,87.27,74.15,36.06,18.52,73.35,37.68,102,91.62,5.9,11.13,12.25,16.62,19.42,16.78h.33c8.54,0,18.15-7.43,30.19-23.32,11-14.45,22.57-34.14,34.87-55,28-47.53,59.81-101.39,94.47-110,11.43-2.85,29.75,23.83,52.94,57.59,41.52,60.46,98.39,143.27,153.08,108.33,21.48-13.72,36.77-31.55,46.72-54.49,8.69-20,12.2-41.38,15.3-60.22s6-36.47,13.45-49.36c8.27-14.3,21.36-21.47,41.18-22.55,15.6-.84,29.38,1.1,42.12,5.94a94.85,94.85,0,0,1,31.45,20c18.16,17,31.87,40.73,45.13,63.69,12,20.72,24.34,42.15,40.08,59,5.93,6.34,11.7,9.36,17.68,9.2,12.37-.31,24.09-14.16,37.65-30.2,9-10.66,19.25-22.75,30.85-31.91,13.32-10.51,26.55-15.66,40.44-15.74,36.31-.22,357.84,0,361.08,0v.85c-3.24,0-324.77-.23-361.07,0-30.75.17-51.95,25.23-70.65,47.35-13.7,16.19-25.52,30.18-38.28,30.5h-.45c-6.06,0-11.91-3.11-17.87-9.48-15.81-16.88-28.2-38.35-40.19-59.11-13.23-22.91-26.91-46.6-45-63.5a94,94,0,0,0-31.17-19.86c-12.63-4.8-26.29-6.72-41.77-5.88C1421,50.57,1408.1,57.6,1400,71.63c-7.38,12.76-10.28,30.4-13.35,49.08-3.1,18.88-6.62,40.29-15.35,60.42-10,23.1-25.41,41.05-47,54.86-9.16,5.86-18.38,8.46-27.56,8.46-46.32,0-91.87-66.32-126.68-117-22.1-32.17-41.18-60-52-57.25-34.31,8.54-66,62.24-93.94,109.62C999.11,222,977.58,258.5,958.22,258.5Z"></path></g><g class="b"><path class="ae" d="M962.58,259.3h-.08c-7.12-.05-13.49-5.59-19.49-17-29-55.06-67.77-73.53-105.25-91.39-34.63-16.51-67.34-32.1-90.81-74.7-11.37-20.64-22.86-36.11-34.16-46-10.4-9.1-21-13.78-31.52-13.9h-.44c-16.67,0-33.91,11.23-52.68,34.3-16.77,20.61-32.58,47.75-47.86,74-24.72,42.45-48.07,82.54-71.12,86.51-6.88,1.18-13.59-.94-19.94-6.32-53.87-45.65-119-74-170-74H-24.12V130H319.22c25.88,0,55.76,7.21,86.41,20.87a357.3,357.3,0,0,1,84.17,53.34c6.22,5.27,12.51,7.27,19.23,6.12,22.65-3.9,45.9-43.82,70.51-86.09,15.3-26.27,31.12-53.44,47.93-74.11,19.12-23.49,36.7-34.82,53.81-34.61,10.73.12,21.52,4.87,32.08,14.11,11.38,10,22.93,25.51,34.35,46.24,23.34,42.36,55.92,57.89,90.42,74.33,37.61,17.93,76.49,36.46,105.65,91.77,5.83,11.05,12,16.45,18.73,16.49h.07c17.56,0,36.87-35.63,59.23-76.88,27-49.77,57.57-106.19,93.25-112.9,11-2.07,29,24.7,51.73,58.59,16.6,24.75,35.43,52.79,55.67,75.88,23.4,26.69,44.15,41.46,63.43,45.16,13.25,2.55,26-.28,37.86-8.41,21-14.35,35.77-32.63,45.3-55.9,8.32-20.31,11.53-41.78,14.36-60.72s5.54-37.07,12.91-50.2c8.18-14.55,21.36-21.91,41.49-23.16,15.93-1,30.06.88,43.21,5.72a99,99,0,0,1,32.6,20.16c19,17.18,33.46,41.23,47.5,64.48,12.47,20.66,25.37,42,41.42,58.76,6,6.24,11.76,9.16,17.65,8.89,12.3-.53,23.67-14.67,36.83-31,18.09-22.49,38.6-48,68.81-48.16,36.33-.23,357.84,0,361.08,0v.87c-3.24,0-324.75-.23-361.07,0-29.81.17-50.17,25.5-68.14,47.84-13.29,16.53-24.78,30.81-37.47,31.36-6.16.27-12.16-2.73-18.32-9.16-16.12-16.81-29-38.21-41.53-58.91-14-23.2-28.49-47.19-47.35-64.28a98.19,98.19,0,0,0-32.31-20c-13-4.79-27-6.65-42.86-5.66-43.14,2.68-47.75,33.54-53.59,72.62-2.84,19-6,40.52-14.41,60.92-9.6,23.43-24.52,41.84-45.62,56.29-12.07,8.26-25,11.14-38.51,8.55-19.48-3.74-40.39-18.61-63.92-45.45-20.28-23.13-39.12-51.2-55.75-76-21.67-32.3-40.39-60.18-50.83-58.22-35.28,6.63-65.76,62.85-92.66,112.46C1000.08,223.46,980.65,259.3,962.58,259.3Z"></path></g><g class="b"><path class="af" d="M967,260.09c-6.7,0-12.81-5.45-18.69-16.67-29.58-56.46-69.93-74.33-108.94-91.61-36.07-16-70.13-31.06-94-74.81-11.6-21.48-23.3-37.58-34.77-47.85-10.56-9.45-21.3-14.3-31.93-14.41-16.83-.15-34.17,11.31-53,35.09-16.7,21.07-32.41,48.79-47.6,75.61-24.57,43.36-47.77,84.31-70.86,88.48-6.82,1.23-13.48-.83-19.79-6.12-26-21.83-54.58-40.48-82.6-53.92C373.1,138.66,344.15,131,318.76,131H-24.12v-.89H318.76c25.52,0,54.6,7.74,86.43,23,28.09,13.48,56.72,32.17,82.79,54,6.19,5.19,12.43,7.13,19.07,5.93,22.67-4.09,45.77-44.87,70.23-88C592.49,98.15,608.22,70.4,625,49.28c18.9-23.84,36.36-35.43,53.36-35.43h.38c10.85.11,21.79,5,32.51,14.63,11.56,10.35,23.32,26.53,35,48.1,23.69,43.47,57.62,58.5,93.54,74.42,39.16,17.34,79.64,35.27,109.37,92,5.71,10.89,11.57,16.19,17.9,16.19h.13c16.3-.19,33.62-35.16,53.67-75.67,25.75-52,54.94-111,91.59-115.59,10.58-1.34,28.23,25.51,50.54,59.51,17,25.93,36.32,55.32,57.16,79.55,24.12,28.06,45.45,43.44,65.22,47,13.49,2.44,26.41-.77,38.41-9.55a124.67,124.67,0,0,0,44-57.33c7.95-20.6,10.86-42.2,13.42-61.26,2.6-19.37,5.05-37.66,12.34-51,8.07-14.79,21.34-22.34,41.76-23.77,16.26-1.14,30.74.66,44.29,5.5a103.14,103.14,0,0,1,33.75,20.3c19.74,17.35,35.07,41.7,49.89,65.25,13,20.6,26.39,41.91,42.75,58.58,6,6.14,11.78,8.95,17.63,8.58,12.23-.75,23.26-15.19,36-31.9,17.36-22.72,37-48.47,66.31-48.65,36.35-.24,357.84,0,361.08,0v.89c-3.24,0-324.73-.24-361.07,0-28.85.18-48.38,25.74-65.61,48.3-12.9,16.89-24,31.47-36.68,32.25-6.12.39-12.11-2.51-18.32-8.85-16.43-16.74-29.87-38.08-42.86-58.72-14.79-23.5-30.09-47.79-49.73-65.06a102.12,102.12,0,0,0-33.46-20.13c-13.43-4.79-27.8-6.57-43.93-5.45-43.75,3.06-48,34.36-53.28,74-2.57,19.11-5.47,40.76-13.46,61.46a125.61,125.61,0,0,1-44.27,57.73c-12.21,8.93-25.36,12.19-39.1,9.71-20-3.62-41.48-19.1-65.74-47.31-20.87-24.28-40.19-53.7-57.22-79.65-21.27-32.4-39.65-60.38-49.69-59.11-36.17,4.56-65.25,63.29-90.9,115.1-20.18,40.77-37.61,76-54.46,76.16Z"></path></g><g class="b"><path class="ag" d="M1292.78,261.38a48.5,48.5,0,0,1-8.18-.7c-20.46-3.48-42.56-19.58-67.55-49.21-21.48-25.46-41.26-56.24-58.72-83.4-21.73-33.82-38.88-60.54-48.58-59.92-16.45,1-32.54,14-49.2,39.65-14.61,22.47-27.81,51.89-39.47,77.85-18,40.11-33.56,74.75-49.29,75.22-6.4.18-12.35-5.16-18.2-16.37-30.06-57.9-72-75.13-112.62-91.79-37.56-15.41-73-30-97.13-75C732,55.46,720,38.76,708.32,28.13c-10.75-9.78-21.65-14.77-32.41-14.84h-.24c-16.8,0-34,11.76-52.71,35.93C606.33,70.72,590.75,99,575.68,126.38c-24.35,44.19-47.34,85.94-70.43,90.31-6.76,1.29-13.37-.72-19.66-5.94-18.55-15.4-47.7-37.37-81.25-54.63-32.32-16.63-61.27-25.06-86-25.06H-24.12v-.91H318.31c24.91,0,54,8.46,86.45,25.16,33.62,17.29,62.83,39.31,81.41,54.74,6.16,5.11,12.34,7,18.91,5.74,22.66-4.29,45.56-45.85,69.8-89.85,15.09-27.4,30.69-55.72,47.35-77.29,18.86-24.41,36.34-36.28,53.44-36.28h.25c11,.07,22.1,5.15,33,15.08,11.77,10.71,23.78,27.48,35.72,49.87,23.93,44.69,59.26,59.19,96.67,74.54,40.74,16.73,82.87,34,113.08,92.22C960,254.76,965.57,260,971.47,260h.3c15.15-.45,30.59-34.85,48.48-74.68,11.66-26,24.89-55.45,39.53-78,16.83-25.89,33.15-39,49.91-40.06,10.21-.64,27.52,26.26,49.41,60.33,17.44,27.14,37.21,57.89,58.65,83.31,24.85,29.46,46.76,45.45,67,48.9,13.71,2.33,26.8-1.27,38.92-10.72a127.76,127.76,0,0,0,42.69-58.8c7.59-20.91,10.18-42.66,12.46-61.85,2.44-20.51,4.55-38.23,11.74-51.78,8-15,21.3-22.72,42-24.3,16.58-1.3,31.42.41,45.36,5.22A107.23,107.23,0,0,1,1512.84,78c20.53,17.53,36.67,42.19,52.28,66,13.47,20.58,27.39,41.85,44.07,58.46,6.07,6,11.82,8.74,17.61,8.28,12.17-1,22.86-15.73,35.24-32.81,16.62-22.93,35.45-48.92,63.79-49.1,36.37-.26,357.84,0,361.08,0v.91c-3.24,0-324.71-.25-361.07,0-27.88.19-46.57,26-63.06,48.73-12.51,17.26-23.32,32.17-35.91,33.18-6.06.49-12.06-2.31-18.32-8.54-16.75-16.68-30.7-38-44.19-58.61-15.58-23.79-31.69-48.4-52.11-65.84a106.1,106.1,0,0,0-34.62-20.25c-13.82-4.77-28.54-6.47-45-5.17-44.35,3.37-48.13,35.1-52.91,75.27-2.29,19.24-4.88,41-12.51,62a128.52,128.52,0,0,1-43,59.21C1314.34,257.5,1303.79,261.38,1292.78,261.38Z"></path></g><g class="b"><path class="ah" d="M1291.66,267.1a48.56,48.56,0,0,1-7.56-.61c-47.16-7.53-94.79-83.16-129.56-138.37-21.34-33.88-38.2-60.64-47.54-60.64-16.75,0-32.72,12.84-48.82,39.26-14.1,23.14-26.44,53.65-37.32,80.56-16,39.56-29.81,73.72-44.46,74.4-6,.27-11.76-5-17.53-16.12-30.64-59.21-74.19-75.81-116.3-91.88-39-14.88-75.92-28.95-100.28-75.21C730.12,55.39,717.91,38.1,706,27.1,695.09,17,684,11.86,673.15,11.82H673c-16.87,0-34.12,12-52.74,36.75-16.54,22-32,50.82-46.95,78.73-24.13,45-46.92,87.59-70,92.17-6.69,1.32-13.27-.61-19.54-5.77-83.06-68.2-136.07-82.52-165.91-82.52h-342v-.94h342c24.41,0,53.5,9.18,86.48,27.29,25.05,13.76,52,32.42,80,55.45,6.13,5,12.27,6.85,18.76,5.57,22.67-4.5,45.36-46.85,69.38-91.7C587.47,98.91,603,70,619.53,48,638.34,23,655.84,10.88,673,10.88h.13c11.13,0,22.4,5.27,33.5,15.53,12,11.07,24.25,28.45,36.47,51.64,24.2,46,60.91,60,99.78,74.78,42.28,16.12,86,32.79,116.81,92.32,5.57,10.77,11,15.87,16.65,15.62,14-.66,27.75-34.56,43.63-73.82,10.89-26.95,23.24-57.5,37.39-80.7,16.28-26.72,32.51-39.71,49.62-39.71,9.86,0,26.84,26.95,48.33,61.08,34.68,55.06,82.18,130.48,128.91,137.94,13.93,2.23,27.18-1.78,39.39-11.9a131.13,131.13,0,0,0,41.48-60.28c7.24-21.22,9.51-43.11,11.52-62.42,2.16-20.79,4-38.75,11.09-52.5,7.83-15.21,21.24-23.13,42.22-24.9,16.91-1.43,32.1.21,46.44,5a111.36,111.36,0,0,1,36.08,20.56c21.31,17.69,38.27,42.63,54.67,66.75,14,20.53,28.39,41.75,45.39,58.3,6.11,5.94,11.86,8.55,17.58,8,12.12-1.2,22.48-16.28,34.47-33.75,15.88-23.12,33.87-49.33,61.26-49.53,12.12-.08,55.86-.11,108.91-.11,106.28,0,250,.11,252.17.12v.93c-3.24,0-324.68-.26-361.07,0-26.9.19-44.75,26.19-60.5,49.12-12.12,17.66-22.59,32.91-35.15,34.16-6,.59-12-2.11-18.32-8.25-17.07-16.61-31.53-37.88-45.51-58.44-16.37-24.07-33.29-48.95-54.5-66.56a110.53,110.53,0,0,0-35.77-20.39c-14.22-4.77-29.29-6.4-46.07-5-44.9,3.8-48.24,35.91-52.46,76.56-2,19.37-4.29,41.32-11.56,62.63a132,132,0,0,1-41.77,60.7C1314,262.84,1303.1,267.1,1291.66,267.1Z"></path></g></g></svg>